<?xml version="1.0" standalone="no"?>
<!DOCTYPE svg PUBLIC "-//W3C//DTD SVG 1.1//EN" "http://www.w3.org/Graphics/SVG/1.1/DTD/svg11.dtd" >
<svg xmlns="http://www.w3.org/2000/svg">
<metadata></metadata>
<defs>
<font id="novel_sans_rd_pro_semiboldRg" horiz-adv-x="1198" >
<font-face units-per-em="2048" ascent="1638" descent="-410" />
<missing-glyph horiz-adv-x="337" />
<glyph unicode="&#xfb03;" horiz-adv-x="1949" d="M31 885v51q0 55 55 61l107 13v57q0 158 26 252q40 141 149.5 210.5t274.5 69.5q48 0 92 -8q55 -6 49 -67l-8 -68q-3 -53 -41 -53q-2 0 -27 2t-55 2q-93 0 -146.5 -42.5t-66.5 -137.5q-8 -47 -8 -137v-80h449v39q0 129 20 224t78 165q64 81 165.5 121t254.5 40 q123 0 227 -24q53 -12 47 -70l-6 -67q-6 -52 -55 -52q-2 0 -73.5 10.5t-137.5 10.5q-154 0 -225 -80q-36 -41 -46 -102t-10 -164v-51h205q60 0 57 -62l-4 -65q-3 -58 -59 -58h-199v-766q0 -59 -59 -59h-121q-59 0 -59 59v766h-449v-766q0 -59 -59 -59h-121q-59 0 -59 59v766 h-103q-59 0 -59 60zM1567 59v889q0 56 55 62l121 10q63 6 63 -57v-904q0 -59 -59 -59h-121q-59 0 -59 59z" />
<glyph unicode="&#xfb04;" horiz-adv-x="1959" d="M31 885v51q0 55 55 61l107 13v57q0 158 26 252q40 141 149.5 210.5t274.5 69.5q48 0 92 -8q55 -6 49 -67l-8 -68q-3 -53 -43 -53q-4 0 -27.5 2t-52.5 2q-93 0 -146.5 -42.5t-66.5 -137.5q-8 -47 -8 -137v-80h449v39q0 129 20 224t78 165q64 81 165.5 121t254.5 40 q121 0 225 -24l119 10q63 6 63 -57v-1469q0 -59 -59 -59h-121q-59 0 -59 59v1332q-72 16 -166 16q-154 0 -225 -80q-36 -41 -46 -102t-10 -164v-51h205q60 0 57 -62l-4 -65q-3 -58 -59 -58h-199v-766q0 -59 -59 -59h-121q-59 0 -59 59v766h-449v-766q0 -59 -59 -59h-121 q-59 0 -59 59v766h-103q-59 0 -59 60z" />
<glyph horiz-adv-x="2048" />
<glyph horiz-adv-x="2048" />
<glyph unicode="&#xd;" horiz-adv-x="2048" />
<glyph unicode=" "  horiz-adv-x="337" />
<glyph unicode="&#x09;" horiz-adv-x="337" />
<glyph unicode="&#xa0;" horiz-adv-x="337" />
<glyph unicode="!" horiz-adv-x="587" d="M147 133q0 61 42 103.5t108 42.5q64 0 103.5 -43.5t39.5 -108.5q0 -63 -41 -104t-106 -41q-64 0 -105 42.5t-41 108.5zM162 1399q0 55 53 55h156q55 0 55 -55q-4 -395 -18 -752q-4 -79 -11.5 -116t-19.5 -49.5t-37 -12.5h-94q-36 0 -48 31.5t-18 146.5q-7 159 -11.5 347 t-5.5 296z" />
<glyph unicode="&#x22;" horiz-adv-x="796" d="M109 1399q-1 26 13 40.5t40 14.5h94q53 0 53 -55l-4 -129q-2 -105 -14 -258q-6 -51 -58 -51h-51q-51 0 -57 51q-8 105 -14 258zM487 1399q-1 26 13 40.5t41 14.5h94q53 0 53 -55l-4 -129q-2 -105 -14 -258q-6 -51 -58 -51h-51q-51 0 -57 51q-10 129 -15 258z" />
<glyph unicode="#" d="M49 332l8 65q6 52 58 52h123l47 397h-115q-28 0 -41.5 15.5t-9.5 43.5l8 64q6 49 55 49h125l27 215q6 51 57 51h78q60 0 51 -59l-24 -207h288l29 215q6 51 57 51h78q57 0 51 -59l-26 -207h117q60 0 51 -57l-8 -64q-6 -51 -54 -51h-127l-47 -397h115q28 0 41.5 -16 t9.5 -44l-6 -63q-9 -52 -57 -52h-125l-27 -223q-6 -51 -57 -51h-80q-57 0 -51 57l26 217h-288l-29 -223q-6 -51 -58 -51h-77q-60 0 -54 57l27 217h-115q-57 0 -51 58zM426 449h291l47 397h-289z" />
<glyph unicode="$" d="M131 209q-3 57 45 57q8 0 51 -14t116 -29t151 -18l18 446q-201 85 -283 184.5t-82 225.5q2 150 112 260.5t321 132.5l10 168q0 40 37 37l47 -2q38 -3 35 -39l-7 -160q129 -4 244 -33q59 -12 53 -69l-8 -80q-6 -53 -53 -53q-7 0 -41 9t-90.5 18t-114.5 10l-18 -422 q112 -44 189 -94t119 -103.5t59.5 -106.5t17.5 -114q0 -53 -15 -105.5t-50 -105.5t-86 -95t-129 -72t-173 -40l-8 -166q-3 -37 -39 -37l-47 2q-35 3 -35 39l6 160q-139 3 -299 55q-48 16 -51 70zM399 1079q0 -115 158 -192l14 366q-85 -13 -128.5 -62.5t-43.5 -111.5z M614 209q95 12 139 65t44 121q0 125 -166 207z" />
<glyph unicode="%" horiz-adv-x="1726" d="M76 1096q0 95 27.5 169t75 119t108 68t129.5 23q143 0 235 -97.5t92 -265.5q0 -95 -27.5 -169.5t-74.5 -120t-107 -68.5t-128 -23q-144 0 -237 98t-93 267zM254 1110q0 -107 43.5 -167t116.5 -60q153 0 153 213q0 109 -43 168t-118 59q-68 0 -110 -50t-42 -163zM465 61 l674 1444q19 42 61 25l66 -29q42 -15 24 -59l-674 -1446q-18 -41 -59 -23l-68 29q-42 18 -24 59zM987 344q0 95 28 169t75.5 119t108 68t128.5 23q143 0 235.5 -97.5t92.5 -265.5q0 -95 -27.5 -169.5t-75 -119.5t-107.5 -68t-128 -23q-144 0 -237 97.5t-93 266.5zM1165 358 q0 -107 43.5 -167t116.5 -60q154 0 154 213q0 107 -43.5 167t-118.5 60q-68 0 -110 -50t-42 -163z" />
<glyph unicode="&#x26;" horiz-adv-x="1693" d="M121 416q0 240 272 385q-170 170 -170 321q0 153 115.5 253t298.5 100t287 -96t104 -238q0 -239 -293 -377q186 -178 385 -328q109 141 109 385q0 53 -12 146q0 67 57 67h100q55 0 64 -47q20 -92 20 -160q0 -306 -160 -516q117 -86 248 -161q29 -19 30.5 -42t-26.5 -45 l-88 -69q-38 -32 -84 -8q-99 56 -243 159q-97 -79 -218 -122t-249 -43q-131 0 -237.5 37t-172.5 99t-101.5 139t-35.5 161zM358 444q0 -108 85.5 -187t234.5 -79q161 0 285 103q-162 129 -447 391q-83 -43 -120.5 -103.5t-37.5 -124.5zM449 1130q0 -56 31.5 -109.5 t121.5 -137.5q64 30 108.5 64.5t66 68t30 60.5t8.5 54q0 72 -51.5 119t-132.5 47q-83 0 -132.5 -44.5t-49.5 -121.5z" />
<glyph unicode="'" horiz-adv-x="417" d="M109 1399q-1 26 13 40.5t40 14.5h94q53 0 53 -55l-4 -129q-2 -105 -14 -258q-6 -51 -58 -51h-51q-51 0 -57 51q-8 105 -14 258z" />
<glyph unicode="(" horiz-adv-x="1001" d="M174 553q0 390 153 682t445 481q34 24 74 2l61 -35q28 -15 28 -35.5t-26 -39.5q-518 -364 -518 -1055q0 -692 520 -1055q25 -19 24 -40t-28 -36l-59 -34q-41 -21 -74 2q-292 189 -446 481t-154 682z" />
<glyph unicode=")" horiz-adv-x="1001" d="M65 1647.5q1 20.5 29 35.5l60 35q39 22 67 2q295 -188 450.5 -480.5t155.5 -686.5q0 -390 -154 -682t-446 -481q-32 -23 -73 -2l-60 34q-28 15 -28 36t26 40q518 364 518 1055q0 692 -520 1055q-26 19 -25 39.5z" />
<glyph unicode="*" horiz-adv-x="980" d="M126 924.5q4 17.5 30 31.5q151 81 254 113q-94 26 -254 111q-26 14 -30 31.5t13 45.5l21 35q18 29 34 34t46 -13q112 -71 215 -166q-35 140 -35 276q0 52 51 52h61q26 0 38 -12t12 -40q0 -144 -33 -276q103 95 215 166q30 18 46 13t32 -34l22 -35q17 -28 13.5 -46 t-29.5 -31q-145 -81 -256 -111q122 -38 256 -113q26 -13 29.5 -31t-13.5 -46l-22 -35q-16 -29 -32 -34t-46 13q-118 75 -215 168q33 -136 33 -278q0 -27 -12 -39t-38 -12h-61q-27 0 -39 12t-12 39q0 134 35 278q-97 -93 -215 -168q-30 -18 -46 -13t-34 34l-21 35 q-17 28 -13 45.5z" />
<glyph unicode="+" horiz-adv-x="1142" d="M82 575v68q0 55 55 55h344v310q0 55 54 55h69q55 0 55 -55v-310h347q53 0 53 -55v-68q0 -55 -53 -55h-347v-309q0 -55 -55 -55h-69q-54 0 -54 55v309h-344q-55 0 -55 55z" />
<glyph unicode="," horiz-adv-x="487" d="M35 -225q0 12 23 42.5t50 63t49 80t21 90.5q-1 38 -20.5 69.5t-38.5 54t-19 40.5q0 35 44 65.5t89 30.5q77 0 127 -60t50 -145q0 -141 -125 -290q-103 -123 -148 -123q-20 0 -57 26q-27 18 -36 29.5t-9 26.5z" />
<glyph unicode="-" horiz-adv-x="665" d="M51 522v82q0 55 55 55h453q55 0 55 -55v-82q0 -55 -55 -55h-453q-55 0 -55 55z" />
<glyph unicode="." horiz-adv-x="514" d="M106 135q0 64 42.5 106t111.5 42q66 0 107 -43.5t41 -112.5q0 -64 -43 -105.5t-111 -41.5q-66 0 -107 43.5t-41 111.5z" />
<glyph unicode="/" horiz-adv-x="966" d="M-2 -408l797 2128q18 50 69 31l74 -29q52 -19 31 -69l-795 -2128q-21 -49 -70 -31l-75 29q-50 18 -31 69z" />
<glyph unicode="0" d="M61 715q0 190 40.5 336.5t114.5 238.5t174 138.5t222 46.5q118 0 212 -43t165 -130t109.5 -230t38.5 -333t-40.5 -336.5t-114.5 -238t-174.5 -138t-223.5 -46.5q-117 0 -211 42.5t-164.5 130t-109 230t-38.5 332.5zM311 731q0 -268 73 -405.5t210 -137.5q67 0 118 27 t91.5 87.5t62 166.5t21.5 254q0 268 -73 405.5t-210 137.5q-67 0 -118 -27t-91.5 -87.5t-62 -166.5t-21.5 -254z" />
<glyph unicode="1" d="M129 1335q-3 65 59 74l277 37q62 8 78 8h129q65 0 65 -65v-1190l221 -9q66 -3 66 -67v-57q0 -66 -66 -66h-714q-68 0 -68 66v57q0 64 66 67l252 9v1044l-287 -29q-66 -6 -72 60z" />
<glyph unicode="2" d="M150 66v79q0 48 32 80l244 256q104 108 172 194.5t100 149.5t43 105.5t11 87.5q0 115 -77 181.5t-196 66.5q-63 0 -123 -17t-99.5 -34t-51.5 -17q-42 0 -45 53l-6 68q-2 30 9.5 49.5t41.5 32.5q157 74 321 74q110 0 202.5 -35t154.5 -94.5t96.5 -139t34.5 -168.5 q0 -64 -15.5 -126.5t-54.5 -141t-114.5 -174t-186.5 -205.5l-176 -178h549q33 0 49.5 -18.5t13.5 -51.5l-8 -80q-6 -63 -70 -63h-786q-65 0 -65 66z" />
<glyph unicode="3" d="M147 139v78q0 57 43 57q11 0 58.5 -22.5t122.5 -45t155 -22.5q127 0 196 57.5t69 149.5q0 86 -76.5 155.5t-243.5 96.5q-65 12 -65 70v55q0 58 63 70q160 30 228.5 96t68.5 147q0 82 -65.5 137.5t-180.5 55.5q-68 0 -132 -18t-106 -36t-57 -18q-17 0 -27 14.5t-12 38.5 l-6 64q-6 60 47 80q158 76 330 76q110 0 199.5 -31t145 -83t85 -117t29.5 -136q0 -46 -14 -92.5t-44.5 -94.5t-87 -90.5t-133.5 -70.5q83 -23 145.5 -64t97.5 -91.5t52 -101.5t17 -102q0 -80 -32.5 -153.5t-94 -134t-163 -97t-227.5 -36.5q-181 0 -337 83q-48 20 -48 76z " />
<glyph unicode="4" d="M55 395v74q0 38 25 80l582 864q28 41 79 41h144q65 0 65 -65v-854h119q69 0 66 -68l-9 -74q-6 -63 -55 -63h-121v-264q0 -66 -65 -66h-111q-67 0 -67 66v264h-586q-66 0 -66 65zM305 535h402v454q0 44 1.5 83.5t3.5 57.5l1 17z" />
<glyph unicode="5" d="M176 129v82q0 55 45 55q13 0 53.5 -19t105.5 -38t138 -19q124 0 192 69t68 163q0 42 -14.5 81.5t-52.5 81t-96.5 74.5t-154.5 57t-218 32q-78 6 -66 73l105 565q9 59 67 62l639 35q34 3 51 -14.5t13 -51.5l-11 -94q-6 -60 -69 -63l-488 -27l-55 -301q137 -14 245 -50.5 t177 -84.5t114.5 -110t64 -124.5t18.5 -130.5q0 -84 -33 -164t-93.5 -144.5t-158.5 -104t-217 -39.5q-169 0 -320 71q-49 24 -49 78z" />
<glyph unicode="6" d="M98 657q0 195 56.5 349t158.5 255t244 154t315 53q74 0 111 -6q61 -3 61 -67v-70q0 -65 -63 -65q-15 0 -41 1t-47 1q-103 0 -192.5 -26t-161 -78t-117.5 -136t-57 -193q123 66 260 66q201 0 338 -123t137 -323q0 -126 -57.5 -232.5t-166.5 -171.5t-247 -65 q-85 0 -162.5 24.5t-145 78t-117 131.5t-78 191.5t-28.5 251.5zM350 631q-3 -123 22.5 -214.5t68.5 -139t89 -69.5t93 -22q101 0 162 65.5t61 178.5t-76.5 184.5t-196.5 71.5q-124 0 -223 -55z" />
<glyph unicode="7" d="M131 1290l6 101q3 63 68 63h792q66 0 66 -65v-105q0 -44 -21 -82l-583 -1175q-30 -55 -86 -31l-94 37q-64 27 -33 88l549 1102h-598q-69 0 -66 67z" />
<glyph unicode="8" d="M88 367q0 227 268 362q-70 38 -120 84.5t-75 94.5t-35.5 89t-10.5 82q0 81 34 152.5t95.5 126t155.5 86t208 31.5q213 0 336 -101.5t123 -257.5q0 -105 -64 -195t-194 -153q301 -138 301 -377q0 -73 -32 -144t-93.5 -131.5t-165 -98t-233.5 -37.5q-221 0 -359.5 110 t-138.5 277zM332 389q0 -93 71.5 -157t194.5 -64q114 0 180 60t66 139q0 173 -299 280q-117 -53 -165 -117.5t-48 -140.5zM371 1100q0 -71 53.5 -133t189.5 -119q114 48 164.5 113.5t50.5 138.5q0 82 -62.5 136t-168.5 54q-105 0 -166 -53t-61 -137z" />
<glyph unicode="9" d="M98 1006q0 126 57.5 232.5t166.5 171.5t247 65q85 0 162.5 -24.5t145 -78t117 -132t78 -192t28.5 -251.5q0 -195 -56.5 -349t-158.5 -255t-244 -154t-315 -53q-76 0 -111 6q-61 3 -61 67v70q0 66 63 66q13 0 38 -1t48 -1q216 0 361.5 109t166.5 323q-120 -66 -260 -66 q-130 0 -237.5 54t-171.5 157t-64 236zM352 1024q0 -113 76 -184.5t197 -71.5q124 0 223 55q3 123 -22.5 214.5t-68.5 139t-89 69.5t-93 22q-101 0 -162 -65.5t-61 -178.5z" />
<glyph unicode=":" horiz-adv-x="514" d="M106 135q0 64 42.5 106t111.5 42q66 0 107 -43.5t41 -112.5q0 -64 -43 -105.5t-111 -41.5q-66 0 -107 43.5t-41 111.5zM106 807q0 64 42.5 105.5t111.5 41.5q66 0 107 -43t41 -112q0 -64 -43 -106t-111 -42q-66 0 -107 44t-41 112z" />
<glyph unicode=";" horiz-adv-x="538" d="M55 -225q0 12 23 42.5t50.5 63t49.5 80t21 90.5q-1 38 -20.5 69.5t-38.5 54t-19 40.5q0 35 44 65.5t89 30.5q77 0 126.5 -60t49.5 -145q0 -141 -125 -290q-103 -123 -147 -123q-21 0 -58 26q-27 18 -36 29.5t-9 26.5zM123 807q0 64 42 105.5t111 41.5q66 0 107 -43 t41 -112q0 -64 -43 -106t-111 -42q-65 0 -106 44t-41 112z" />
<glyph unicode="&#x3c;" horiz-adv-x="1167" d="M72 557v59q0 47 41 64l917 459q29 15 47.5 3t18.5 -44v-76q0 -45 -39 -64l-738 -368l738 -367q39 -16 39 -63v-86q0 -32 -18.5 -43t-47.5 4l-917 457q-41 20 -41 65z" />
<glyph unicode="=" horiz-adv-x="1142" d="M84 330v69q0 56 55 56h867q53 0 53 -56v-69q0 -56 -53 -56h-867q-26 0 -40.5 15t-14.5 41zM84 786v66q0 55 55 55h867q53 0 53 -55v-66q0 -55 -53 -55h-867q-55 0 -55 55z" />
<glyph unicode="&#x3e;" horiz-adv-x="1167" d="M72 86v78q0 46 41 63l733 369l-733 367q-41 20 -41 65v82q0 32 18 43t47 -4l920 -457q39 -19 39 -65v-60q0 -47 -39 -63l-920 -459q-29 -15 -47 -3.5t-18 44.5z" />
<glyph unicode="?" horiz-adv-x="866" d="M106 1376q-6 51 56 68q100 31 223 31q96 0 173.5 -28.5t125 -75.5t73 -103.5t25.5 -116.5q0 -175 -168 -307l-47 -37q-63 -50 -85.5 -90.5t-22.5 -83.5q0 -26 13 -60.5t13 -40.5q0 -35 -43 -47l-94 -28q-49 -13 -78 37q-59 94 -59 182q0 62 33.5 123.5t128.5 136.5l47 37 q58 45 81 82.5t23 77.5q0 60 -52.5 99.5t-139.5 39.5q-50 0 -106.5 -12.5t-63.5 -12.5q-40 0 -45 47zM227 133q0 61 42 103.5t108 42.5q64 0 103.5 -43.5t39.5 -108.5q0 -63 -41 -104t-106 -41q-64 0 -105 42.5t-41 108.5z" />
<glyph unicode="@" horiz-adv-x="2242" d="M168 502q0 185 50.5 343t141 272.5t213 196t269 121.5t307.5 40q217 0 393 -65t292 -180t178.5 -271.5t62.5 -340.5q0 -133 -29.5 -245t-79.5 -188t-116 -129.5t-138 -78t-147 -24.5q-90 0 -150 35.5t-98 113.5q-142 -131 -318 -131q-132 0 -216.5 73.5t-84.5 197.5 q0 50 14.5 94t53.5 88.5t101.5 76.5t166 52.5t238.5 21.5v27q0 93 -19 135q-43 88 -172 88q-68 0 -128.5 -14.5t-97.5 -28.5t-46 -14q-37 0 -41 45l-4 53q-6 46 35 66q67 35 150.5 53.5t156.5 18.5q242 0 334 -142q31 -50 42 -114t11 -160v-295q0 -172 109 -172 q31 0 64.5 13.5t70 48.5t64.5 86.5t46.5 136t18.5 188.5q0 205 -85.5 364.5t-251 250.5t-388.5 91q-156 0 -292.5 -48.5t-242.5 -142t-167.5 -243.5t-61.5 -338q0 -214 59.5 -379.5t170 -270.5t262.5 -158.5t341 -53.5q74 0 141.5 10t108.5 19.5t51 9.5q45 0 48 -49l4 -66 q6 -52 -45 -61q-169 -41 -334 -41q-223 0 -408 64.5t-321 189t-211.5 318.5t-75.5 442zM907 264q0 -55 41.5 -90t118.5 -35q111 0 205 76v213q-104 2 -179 -12t-113.5 -39t-55.5 -53t-17 -60z" />
<glyph unicode="A" horiz-adv-x="1529" d="M113 76l471 1321q17 53 73 53l177 8q58 0 75 -53l502 -1329q7 -17 7 -30q0 -14 -8 -25q-14 -21 -52 -21h-144q-54 0 -75 53l-113 309h-563l-105 -307q-18 -55 -73 -55h-119q-36 0 -50 20q-8 11 -8 27q0 13 5 29zM526 559h430l-163 449l-62 178q-1 -1 -6.5 -22.5 t-18.5 -65.5t-28 -90z" />
<glyph unicode="B" horiz-adv-x="1343" d="M193 66v1323q0 65 67 65h283q117 0 216 -23.5t175.5 -69.5t120 -122.5t43.5 -175.5q0 -107 -61 -189.5t-167 -117.5q162 -29 244 -128t82 -216q0 -105 -54 -193t-159 -147q-129 -72 -403 -72h-320q-67 0 -67 66zM449 197h149q145 0 213 30q56 25 89.5 71t33.5 110 q0 106 -95.5 173.5t-281.5 67.5h-108v-452zM449 825h102q128 0 184 31q115 61 115 188q0 102 -85 164t-241 62h-75v-445z" />
<glyph unicode="C" horiz-adv-x="1558" d="M117 723q0 207 76.5 358.5t203.5 245.5q205 148 525 148q193 0 370 -60q52 -14 52 -66q0 -6 -1 -12l-8 -84q-5 -55 -55 -55q-9 0 -58.5 15t-133 29.5t-173.5 14.5q-233 0 -366 -110q-170 -137 -170 -406q0 -154 63.5 -275.5t191 -194t300.5 -72.5q95 0 186.5 19.5 t149.5 38.5t71 19q45 0 45 -52v-7l-6 -86q-3 -57 -55 -74q-206 -77 -407 -77q-298 0 -486 122q-147 93 -231 257t-84 364z" />
<glyph unicode="D" horiz-adv-x="1646" d="M193 66v1323q0 64 67 67h338q495 0 721 -221q207 -189 207 -487q0 -154 -55 -291t-166 -238q-106 -109 -255.5 -165t-365.5 -56q-260 0 -424 2q-67 0 -67 66zM449 213q100 -4 235 -4q312 0 455 172q125 134 125 344q0 218 -144 354q-87 89 -212 126.5t-312 37.5 q-94 0 -147 -2v-1028z" />
<glyph unicode="E" horiz-adv-x="1216" d="M193 66v1323q0 65 67 65h670q65 0 65 -65v-82q0 -66 -65 -66h-481v-401h444q68 0 68 -66v-76q0 -65 -68 -65h-444v-420h530q65 0 65 -62v-6l-8 -82q-3 -63 -67 -63h-709q-67 0 -67 66z" />
<glyph unicode="F" horiz-adv-x="1169" d="M193 66v1323q0 65 67 65h670q65 0 65 -65v-82q0 -66 -65 -66h-481v-455h458q66 0 66 -65v-80q0 -66 -66 -66h-458v-509q0 -32 -17.5 -49t-48.5 -17h-123q-67 0 -67 66z" />
<glyph unicode="G" horiz-adv-x="1615" d="M117 731q0 203 74 351t200 241q210 152 541 152q202 0 391 -58q52 -14 52 -65q0 -5 -1 -11l-8 -84q-6 -55 -55 -55q-7 0 -59.5 14t-141 27.5t-182.5 13.5q-250 0 -385 -112q-164 -142 -164 -397q0 -118 36 -218t104.5 -175t177 -117.5t245.5 -42.5q93 0 227 28v389 q0 66 68 66h123q65 0 65 -66v-379q0 -39 1 -72t1 -44q0 -59 -57 -74q-238 -63 -444 -63q-301 0 -492 122q-148 95 -232.5 260t-84.5 369z" />
<glyph unicode="H" horiz-adv-x="1603" d="M193 66v1323q0 65 67 65h123q66 0 66 -65v-549h708v549q0 65 66 65h123q65 0 65 -65v-1323q0 -66 -65 -66h-123q-66 0 -66 66v552h-708v-552q0 -32 -17.5 -49t-48.5 -17h-123q-67 0 -67 66z" />
<glyph unicode="I" horiz-adv-x="641" d="M193 66v1323q0 65 67 65h123q66 0 66 -65v-1323q0 -32 -17.5 -49t-48.5 -17h-123q-67 0 -67 66z" />
<glyph unicode="J" horiz-adv-x="647" d="M-16 -414q-11 19 -11 37q0 30 33 55q116 84 155.5 174t39.5 254v1283q0 65 65 65h123q66 0 66 -65v-1252q0 -250 -80 -395.5t-266 -249.5q-19 -9 -35 -9q-34 0 -56 38z" />
<glyph unicode="K" horiz-adv-x="1517" d="M193 66v1323q0 65 67 65h123q66 0 66 -65v-1323q0 -32 -17.5 -49t-48.5 -17h-123q-67 0 -67 66zM499 736.5q0 19.5 23 47.5l553 631q29 39 80 39h145q43 0 55 -24t-16 -56l-557 -612l576 -682q18 -22 18 -40q0 -8 -4 -16q-12 -24 -53 -24h-184q-51 0 -80 39l-533 647 q-23 31 -23 50.5z" />
<glyph unicode="L" horiz-adv-x="1161" d="M193 66v1323q0 65 67 65h123q66 0 66 -65v-1176h530q65 0 65 -62v-6l-8 -82q-3 -63 -67 -63h-709q-67 0 -67 66z" />
<glyph unicode="M" horiz-adv-x="2103" d="M188 68l50 1321q3 65 67 65h232q54 0 75 -53l430 -1094l445 1094q18 53 74 53h233q65 0 68 -65l55 -1321v-6q0 -62 -64 -62h-124q-65 0 -68 66l-37 839q-4 100 -4 238q-37 -105 -80 -211l-358 -879q-18 -53 -74 -53h-147q-55 0 -76 53l-350 883q-54 135 -74 205 q0 -144 -2 -234l-33 -841q-3 -66 -68 -66h-106q-64 0 -64 62v6z" />
<glyph unicode="N" horiz-adv-x="1679" d="M193 66v1323q0 65 67 65h162q52 0 80 -41l747 -1038q-4 94 -4 188v826q0 65 66 65h110q66 0 66 -65v-1323q0 -66 -66 -66h-164q-51 0 -79 41l-748 1046q4 -47 4 -227v-794q0 -66 -65 -66h-109q-67 0 -67 66z" />
<glyph unicode="O" horiz-adv-x="1765" d="M117 743q0 199 84 352t229 248q196 132 461 132q361 0 567 -218q191 -201 191 -505q0 -207 -87 -377t-239 -271q-180 -124 -457 -124q-137 0 -261 41.5t-218 115.5q-130 103 -200 259.5t-70 346.5zM381 762q0 -136 45.5 -252t128.5 -193q58 -55 142 -88.5t171 -33.5h13 q185 0 305 88q95 70 146.5 187.5t51.5 260.5q0 111 -36 210t-103 171q-142 148 -377 148q-170 0 -299 -93q-88 -63 -138 -168.5t-50 -236.5z" />
<glyph unicode="P" horiz-adv-x="1275" d="M193 66v1323q0 65 67 65h229q171 0 285.5 -26.5t206.5 -94.5q178 -133 178 -362q0 -143 -67.5 -255.5t-190.5 -172.5q-109 -55 -245 -55q-14 0 -27 1q-30 -1 -48 17t-18 49v68q0 39 14 53t58 18q119 1 191.5 76t72.5 180q0 143 -104 217q-97 70 -287 70h-59v-1171 q0 -32 -17.5 -49t-48.5 -17h-123q-67 0 -67 66z" />
<glyph unicode="Q" horiz-adv-x="1765" d="M117 743q0 199 84 352t229 248q196 132 461 132q361 0 567 -218q191 -201 191 -505q0 -172 -62 -323.5t-187 -263.5t-294 -153q175 -131 329.5 -195.5t329.5 -64.5q40 0 82 3t54 3q49 0 49 -49v-6l-4 -57q-3 -61 -43 -72q-79 -20 -185 -20q-250 0 -453.5 93t-476.5 337 q-237 18 -401 153q-130 103 -200 259.5t-70 346.5zM381 762q0 -136 45.5 -252t128.5 -193q58 -55 142 -88.5t171 -33.5h13q185 0 305 88q95 70 146.5 187.5t51.5 260.5q0 111 -36 210t-103 171q-142 148 -377 148q-170 0 -299 -93q-88 -63 -138 -168.5t-50 -236.5z" />
<glyph unicode="R" horiz-adv-x="1507" d="M193 66v1323q0 65 67 65h264q174 0 292.5 -32t203.5 -101q147 -123 147 -324q0 -123 -56.5 -221.5t-176.5 -157.5l160 -198q91 -117 159 -168.5t144 -69.5q54 -13 54 -63q0 -7 -1 -15l-12 -59q-10 -59 -70 -59q-111 2 -186.5 28.5t-155.5 97.5t-186 210l-160 210h-231 v-466q0 -32 -17.5 -49t-48.5 -17h-123q-67 0 -67 66zM449 725q108 -4 190 -4q110 0 176 61q88 66 88 195q0 57 -24 110.5t-72 88.5q-51 42 -116 56.5t-165 14.5h-77v-522z" />
<glyph unicode="S" horiz-adv-x="1191" d="M121 193q-2 61 49 61q11 0 60.5 -15t126.5 -29.5t155 -14.5q75 0 130 17.5t83 46.5t40.5 60t12.5 66q0 30 -7 54.5t-26 53t-60 57t-103 56.5l-107 47q-185 83 -259.5 182.5t-74.5 229.5q1 80 33.5 152.5t94.5 130.5t162.5 92.5t227.5 34.5q150 0 285 -37q54 -14 54 -65 q0 -5 -1 -11l-8 -76q-7 -55 -51 -55q-6 0 -93 17.5t-169 17.5q-133 0 -197.5 -51.5t-64.5 -129.5q0 -62 43.5 -112t173.5 -107l104 -47q184 -83 255 -180.5t71 -226.5q0 -61 -17.5 -119.5t-58.5 -116t-102 -100.5t-155 -69.5t-210 -26.5q-182 0 -342 55q-50 14 -53 74z" />
<glyph unicode="T" horiz-adv-x="1294" d="M80 1307v82q0 65 65 65h1012q33 0 50 -18q14 -16 14 -42v-10l-7 -81q-3 -62 -65 -62h-379v-1175q0 -66 -65 -66h-123q-66 0 -66 66v1175h-371q-65 0 -65 66z" />
<glyph unicode="U" horiz-adv-x="1601" d="M186 705v684q0 65 66 65h123q65 0 65 -65v-693q0 -139 17.5 -227.5t68.5 -151.5q91 -118 293 -118q172 0 260 102q53 60 74 146.5t21 222.5v719q0 65 65 65h111q65 0 65 -65v-682q0 -205 -33 -332.5t-120 -218.5q-75 -81 -194 -130t-271 -49q-342 0 -496 205 q-66 87 -90.5 207.5t-24.5 315.5z" />
<glyph unicode="V" horiz-adv-x="1462" d="M80 1378q-7 17 -7 30q-1 14 7 25q14 21 53 21h141q56 0 74 -53l397 -1120l394 1120q17 53 73 53h119q37 0 51 -21q8 -11 7 -27q0 -13 -5 -28l-483 -1321q-17 -53 -74 -53l-180 -8q-58 0 -76 53z" />
<glyph unicode="W" horiz-adv-x="2220" d="M80 1380q-5 15 -5 27q0 15 8 27q15 20 52 20h135q58 0 76 -55l375 -1147l272 833l-102 293q-12 35 2 55.5t51 20.5h127q58 0 76 -55l385 -1133l350 1133q15 55 74 55h115q35 0 50 -20q9 -12 9 -29q0 -11 -4 -25l-430 -1321q-18 -55 -74 -55l-188 -8q-58 0 -76 55 l-252 717l-242 -711q-17 -53 -73 -53l-189 -8q-55 0 -76 55z" />
<glyph unicode="X" horiz-adv-x="1492" d="M120 1431q12 23 52 23h166q52 0 80 -41l344 -502l319 500q27 43 80 43h127q40 0 53.5 -23t-8.5 -57l-428 -651l457 -643q15 -22 15 -40q0 -9 -4 -17q-12 -23 -52 -23h-176q-52 0 -80 41l-342 498l-313 -496q-27 -43 -80 -43h-129q-40 0 -53.5 23t8.5 57l426 645l-451 649 q-15 22 -15 40q0 9 4 17z" />
<glyph unicode="Y" horiz-adv-x="1417" d="M72 1431q13 23 53 23h154q53 0 79 -45l367 -571l362 573q27 43 80 43h123q41 0 54 -23q5 -9 5 -19q0 -17 -14 -38l-501 -764v-544q0 -66 -66 -66h-123q-65 0 -65 66v542l-500 766q-14 21 -14 38q0 10 6 19z" />
<glyph unicode="Z" horiz-adv-x="1329" d="M111 66v65q0 44 24 80l680 1028h-616q-66 0 -66 66v84q0 65 66 65h880q66 0 66 -65v-58q0 -43 -25 -80l-690 -1038h713q63 0 63 -58v-10l-6 -82q-6 -63 -67 -63h-957q-65 0 -65 66z" />
<glyph unicode="[" horiz-adv-x="761" d="M184 -565v2230q0 55 54 55h417q54 0 54 -55l-2 -51q-3 -53 -56 -53h-264v-2022h268q55 0 52 -55l-2 -51q0 -54 -54 -54h-413q-54 0 -54 56z" />
<glyph unicode="\" horiz-adv-x="966" d="M-2 1653q-21 50 31 69l73 29q52 19 70 -31l797 -2128q19 -51 -31 -69l-76 -29q-48 -18 -69 31z" />
<glyph unicode="]" horiz-adv-x="761" d="M53 -565l2 51q3 53 56 53h264v2022h-269q-56 0 -53 55l2 51q3 53 56 53h413q54 0 54 -55v-2230q0 -56 -54 -56h-418q-26 0 -40 15t-13 41z" />
<glyph unicode="^" horiz-adv-x="991" d="M79.5 515.5q-12.5 19.5 2.5 51.5l321 688q20 45 70 45h49q52 0 72 -45l317 -688q14 -32 1 -51.5t-48 -19.5h-76q-50 0 -69 45l-225 499l-222 -499q-19 -45 -69 -45h-76q-35 0 -47.5 19.5z" />
<glyph unicode="_" horiz-adv-x="1024" d="M0 -96q0 55 55 55h914q55 0 55 -55v-90q0 -56 -55 -56h-914q-55 0 -55 56v90z" />
<glyph unicode="`" horiz-adv-x="741" d="M117 1487l24 82q15 60 72 28l381 -241q42 -26 27 -74l-21 -55q-19 -55 -72 -29l-381 219q-43 19 -30 70z" />
<glyph unicode="a" horiz-adv-x="1101" d="M82 258q0 52 15 98t56 93t105.5 80.5t172 55t247.5 23.5v27q0 95 -19 137q-42 92 -180 92q-69 0 -131 -15t-100.5 -29.5t-50.5 -14.5q-40 0 -43 47l-7 53v6q0 51 48 74q149 68 313 68q253 0 348 -148q33 -51 44 -118.5t11 -168.5v-337q0 -69 18.5 -99t69.5 -37 q33 -8 47 -22t13 -41l-2 -35q-3 -55 -56 -61t-86 -6q-157 0 -204 120q-131 -123 -316 -123q-138 0 -225.5 76.5t-87.5 204.5zM301 283q0 -56 43 -92.5t123 -36.5q111 0 211 77v220h-27q-91 0 -158 -12q-77 -14 -117 -39.5t-57.5 -54t-17.5 -62.5z" />
<glyph unicode="b" horiz-adv-x="1220" d="M137 100q6 99 6 142v1271q0 26 15 42.5t43 19.5l121 10q5 0 10 1q22 0 36 -13q16 -15 17 -45v-463q0 -89 -10 -156q115 146 311 146q186 0 308 -135t122 -375q0 -261 -152 -414.5t-432 -153.5q-175 0 -333 48q-37 11 -51 27q-12 14 -11 40v8zM379 195q91 -29 186 -29 q141 0 223 90.5t82 255.5q0 167 -73.5 255.5t-178.5 88.5q-132 0 -233 -104v-445q0 -79 -6 -112z" />
<glyph unicode="c" horiz-adv-x="1017" d="M100 508q0 139 41.5 246.5t113 171.5t162 96.5t195.5 32.5q113 0 211 -31q57 -16 57 -64q0 -5 -1 -10l-9 -73q-3 -50 -49 -50q-1 0 -61 14.5t-125 14.5q-129 0 -209 -76t-80 -243q0 -93 24.5 -163t68 -111t96 -61t114.5 -20q65 0 134 18.5t77 18.5q41 0 41 -51l-2 -74 q-2 -29 -14.5 -45t-46.5 -29q-99 -40 -230 -40q-227 0 -367.5 140t-140.5 388z" />
<glyph unicode="d" horiz-adv-x="1216" d="M100 494q0 254 149 406.5t408 152.5q91 0 174 -21v481q0 26 15 42.5t43 19.5l121 10q5 1 10 1q51 0 51 -58v-1462q0 -56 -55 -62l-103 -10h-7q-53 0 -58 45l-4 80q-128 -142 -316 -142q-186 0 -307 136t-121 381zM346 524q0 -171 72.5 -259.5t177.5 -88.5q128 0 235 107 v553q-89 30 -176 30q-144 0 -226.5 -89.5t-82.5 -252.5z" />
<glyph unicode="e" horiz-adv-x="1122" d="M94 526q0 237 136.5 383t361.5 146q198 -1 310 -135q97 -117 97 -312q0 -30 -2 -61q-6 -55 -63 -55h-602q1 -155 95 -238.5t259 -83.5q68 0 128.5 11t97.5 22.5t49 11.5q43 0 43 -55l-5 -56q0 -50 -47 -67q-137 -57 -299 -57h-4q-274 0 -414 149q-141 150 -141 397z M334 645l434 2v11q0 102 -54 164q-57 64 -153 65q-91 0 -156 -63t-71 -179z" />
<glyph unicode="f" horiz-adv-x="743" d="M31 885v51q0 55 55 61l107 13v57q0 162 28 252q39 139 151 209.5t275 70.5q84 0 141 -14q51 -8 51 -56q0 -5 -1 -11l-9 -68q-3 -53 -51 -53q-4 0 -43.5 5t-72.5 5q-98 0 -153 -42.5t-67 -137.5q-10 -44 -10 -137v-80h205q57 0 57 -56v-6l-4 -65q-3 -58 -59 -58h-199v-766 q0 -59 -59 -59h-121q-59 0 -59 59v766h-103q-59 0 -59 60z" />
<glyph unicode="g" horiz-adv-x="1118" d="M10 -272q0 89 61.5 158.5t192.5 99.5q-65 53 -65 133q0 109 106 174q-102 47 -158.5 138.5t-56.5 223.5q0 178 119.5 291t304.5 113q143 0 246 -64h266q32 0 46 -13q13 -12 13 -35v-7l-4 -57q-3 -47 -57 -47h-133q47 -77 47 -179q0 -173 -115.5 -288t-318.5 -115 q-44 0 -76 8q-20 -26 -20 -59q0 -96 202 -101l109 -2q200 -6 285 -82q65 -59 65 -168q0 -47 -21.5 -100.5t-70 -109t-117 -100t-174 -73t-229.5 -28.5q-116 0 -206.5 28t-140.5 72.5t-75 92.5t-25 96zM223 -233q0 -64 69.5 -114t209.5 -50q155 0 249.5 62.5t94.5 129.5 q0 35 -23 58q-37 34 -170 36l-98 5q-107 3 -184 30q-79 -26 -113.5 -67.5t-34.5 -89.5zM315 653q0 -119 55.5 -180t135.5 -61q96 0 152.5 68t56.5 177q0 119 -58.5 182.5t-140.5 63.5q-91 0 -146 -66.5t-55 -183.5z" />
<glyph unicode="h" horiz-adv-x="1189" d="M143 59v1454q0 26 15 42.5t43 19.5l121 10q5 0 10 1q22 0 36 -13q16 -15 17 -45v-449q0 -106 -8 -161q120 137 313 137q118 0 200.5 -53t121.5 -150q24 -55 30.5 -124t6.5 -175v-494q0 -59 -60 -59h-121q-59 0 -59 59v473q0 74 -6 130q-8 88 -54.5 138t-136.5 50 q-124 0 -227 -100v-691q0 -59 -59 -59h-123q-60 0 -60 59z" />
<glyph unicode="i" horiz-adv-x="528" d="M111 1380q0 63 43 103.5t110 40.5q68 0 110 -41t42 -105t-43.5 -104.5t-110.5 -40.5q-71 0 -111 40.5t-40 106.5zM143 59v889q0 56 58 62l121 10h10q22 0 36 -12q16 -15 17 -45v-904q0 -59 -59 -59h-123q-60 0 -60 59z" />
<glyph unicode="j" horiz-adv-x="528" d="M-45 -410q-18 19 -18 39q0 22 20 45q117 123 151.5 218t34.5 282v774q0 56 58 62l121 10q30 3 46.5 -12t16.5 -45v-813q0 -153 -29.5 -260.5t-89.5 -190t-170 -176.5q-21 -17 -40 -17q-23 0 -44 23zM111 1380q0 63 43 103.5t110 40.5q68 0 110 -41t42 -105t-43.5 -104.5 t-110.5 -40.5q-71 0 -111 40.5t-40 106.5z" />
<glyph unicode="k" horiz-adv-x="1165" d="M143 59v1454q0 26 15 42.5t43 19.5l121 10q5 0 10 1q22 0 36 -13q16 -15 17 -45v-1469q0 -59 -59 -59h-123q-60 0 -60 59zM444 504q-12 21 -12 40q0 23 17 44l333 409q27 37 72 37h143q38 0 48 -21t-13 -50l-342 -404l375 -487q15 -19 15 -35q0 -7 -4 -15 q-11 -22 -48 -22h-164q-45 0 -69 37z" />
<glyph unicode="l" horiz-adv-x="528" d="M143 59v1454q0 26 15 42.5t43 19.5l121 10q5 0 10 1q22 0 36 -13q16 -15 17 -45v-1469q0 -59 -59 -59h-123q-60 0 -60 59z" />
<glyph unicode="m" horiz-adv-x="1847" d="M143 59v910q0 55 58 61l100 8q6 1 11 1q50 0 53 -50l2 -82q125 148 323 148q103 0 179.5 -43.5t119.5 -124.5q136 168 354 168q120 0 204 -52.5t124 -150.5q37 -92 37 -299v-494q0 -59 -59 -59h-123q-60 0 -60 59v473q0 74 -6 130q-6 88 -53 138t-137 50 q-130 0 -234 -109q11 -70 11 -174v-508q0 -59 -60 -59h-121q-59 0 -59 59v486q0 70 -8 133q-8 76 -54.5 124t-132.5 48q-124 0 -227 -100v-691q0 -59 -59 -59h-123q-60 0 -60 59z" />
<glyph unicode="n" horiz-adv-x="1189" d="M143 59v910q0 55 58 61l100 8q6 1 11 1q50 0 53 -50l2 -82q125 148 323 148q118 0 200.5 -53t121.5 -150q24 -55 30.5 -124t6.5 -175v-494q0 -59 -60 -59h-121q-59 0 -59 59v473q0 74 -6 130q-8 88 -54.5 138t-136.5 50q-124 0 -227 -100v-691q0 -59 -59 -59h-123 q-60 0 -60 59z" />
<glyph unicode="o" horiz-adv-x="1230" d="M100 516q0 129 41.5 233t114 170t168.5 101t207 35q223 0 361 -135t138 -379q0 -138 -42.5 -247t-116 -176.5t-166 -102.5t-197.5 -35q-97 0 -186.5 34t-162 98.5t-116 169t-43.5 234.5zM344 530q0 -162 75.5 -261t192.5 -99h15q114 0 187 92t73 254q0 161 -74.5 255.5 t-200.5 94.5q-116 0 -192 -83t-76 -253z" />
<glyph unicode="p" horiz-adv-x="1214" d="M143 -453v1422q0 26 15 42t43 17l102 10q6 1 11 1q50 0 53 -50l2 -86q119 152 317 152q186 0 308 -135t122 -375q0 -261 -152 -414.5t-432 -153.5q-79 0 -147 19v-449q0 -59 -59 -59h-123q-60 0 -60 59zM385 197q77 -31 180 -31q141 0 223 90.5t82 255.5 q0 167 -73.5 255.5t-178.5 88.5q-132 0 -233 -104v-555z" />
<glyph unicode="q" horiz-adv-x="1216" d="M100 494q0 259 156 410t440 151q142 0 322 -33q53 -11 53 -66v-1409q0 -59 -59 -59h-121q-60 0 -60 59v424q0 33 9 146q-124 -140 -312 -140q-89 0 -166.5 33.5t-136 97t-92 163t-33.5 223.5zM346 520q0 -168 73 -256t177 -88q128 0 235 107v561q-81 22 -163 22 q-151 0 -236.5 -87.5t-85.5 -258.5z" />
<glyph unicode="r" horiz-adv-x="806" d="M143 59v910q0 26 15 42t43 17l100 10q5 1 10 1q51 0 54 -56l2 -98q28 53 61 88t69.5 51.5t68 22.5t69.5 6q37 0 74 -9q35 -12 35 -52q0 -5 -1 -11l-6 -96q-7 -54 -41 -54q-6 0 -31.5 4.5t-48.5 4.5q-142 0 -231 -123v-658q0 -59 -59 -59h-123q-60 0 -60 59z" />
<glyph unicode="s" horiz-adv-x="940" d="M111 743q0 54 23.5 107t69 100t124 76t178.5 29q115 0 217 -31q35 -10 47.5 -27t9.5 -47l-6 -57q-5 -51 -47 -51q-9 0 -77 14t-132 14q-86 0 -128 -33t-42 -77q0 -38 32 -68t118 -59l88 -31q241 -84 241 -293q0 -45 -13.5 -89t-45 -87.5t-77.5 -76.5t-117 -53.5 t-158 -20.5q-118 0 -228 36q-45 13 -59 28.5t-14 47.5l-2 64q0 53 43 53q6 0 84.5 -21.5t160.5 -21.5q89 0 135 37t46 86q0 40 -31 73t-119 64l-88 31q-125 44 -179 115t-54 169z" />
<glyph unicode="t" horiz-adv-x="796" d="M20 885v49q0 54 56 63l112 13l23 166q6 55 61 55l82 2q29 0 45.5 -15.5t16.5 -43.5v-164h227q59 0 59 -56v-6l-4 -65q-3 -58 -61 -58h-221v-467q0 -98 42.5 -138t116.5 -40q28 0 67 8.5t50 8.5q21 0 33.5 -14.5t11.5 -39.5l-4 -63q0 -52 -45 -66q-88 -32 -174 -32 q-74 0 -131.5 16t-106.5 54t-75.5 109t-26.5 173v491h-94q-60 0 -60 60z" />
<glyph unicode="u" horiz-adv-x="1189" d="M139 483v484q0 55 58 61l120 10h10q23 0 37 -12q17 -15 17 -45v-479q0 -74 6 -129q6 -88 53.5 -138.5t137.5 -50.5q120 0 227 101v682q0 55 55 61l123 10q5 1 10 1q51 0 51 -58v-913q0 -56 -55 -62l-100 -8q-29 -4 -45.5 8.5t-18.5 38.5l-4 82q-122 -145 -323 -145 q-117 0 -199.5 51.5t-122.5 148.5q-37 92 -37 301z" />
<glyph unicode="v" horiz-adv-x="1140" d="M59 967q-5 14 -5 25q0 14 8 24q14 18 47 18h129q50 0 67 -49l213 -602q16 -44 28.5 -85.5t17.5 -61.5l5 -19q15 60 54 166l221 604q14 47 67 47h115q34 0 47 -18q7 -10 7 -23q0 -11 -5 -26l-350 -916q-18 -47 -68 -47l-188 -8q-55 0 -70 49z" />
<glyph unicode="w" horiz-adv-x="1769" d="M59 969q-3 11 -3 21q0 15 8 26q14 18 47 18h129q52 0 67 -51l168 -594q9 -35 18 -72.5l15 -62.5l6 -25q20 80 49 160l193 596q14 49 67 49h135q54 0 66 -49l182 -590l43 -164q18 68 45 160l181 594q15 49 67 49h111q31 0 45 -18q8 -10 8 -24q0 -10 -4 -23l-299 -918 q-18 -47 -68 -47l-174 -6h-6q-47 0 -61 49l-213 684l-224 -680q-18 -47 -67 -47l-178 -6h-6q-48 0 -62 47z" />
<glyph unicode="x" horiz-adv-x="1124" d="M72 1014q11 20 47 20h153q47 0 70 -39l221 -329l217 329q23 39 72 39h125q37 0 48 -20t-9 -51l-305 -445l317 -446q14 -20 14 -36q0 -8 -4 -16q-11 -20 -47 -20h-162q-45 0 -71 39l-215 319l-211 -319q-26 -39 -74 -39h-129q-37 0 -48 20.5t9 51.5l305 442l-313 449 q-14 20 -14 36q0 8 4 15z" />
<glyph unicode="y" horiz-adv-x="1146" d="M41 967q-4 13 -4 24q0 15 7 25q14 18 46 18h148q50 0 65 -49q149 -492 293 -860q71 135 137 358q62 218 96 496q6 55 64 55h119q56 0 56 -51q0 -5 -1 -10q-41 -289 -129 -574q-130 -405 -328 -622q-170 -188 -434 -293q-15 -5 -27 -5q-34 0 -51 38l-39 88q-7 16 -7 30 q0 32 42 48q235 99 344 235q-114 265 -224.5 564t-172.5 485z" />
<glyph unicode="z" horiz-adv-x="1026" d="M106 59v64q0 37 27 78l461 651h-401q-60 0 -60 59v64q0 59 60 59h636q60 0 60 -59v-66q0 -35 -25 -71l-461 -652h451q58 0 58 -53q0 -5 -1 -10l-10 -66q-6 -57 -61 -57h-674q-60 0 -60 59z" />
<glyph unicode="{" horiz-adv-x="968" d="M92 518l2 64q3 45 53 57q138 20 189 90t51 232v323q0 247 112 343t365 91q56 0 56 -55l-2 -47q0 -49 -56 -55q-145 -8 -202.5 -65t-57.5 -196v-290q0 -87 -6.5 -148t-22.5 -113.5t-45.5 -87t-74 -59.5t-109.5 -41q149 -29 203.5 -124.5t54.5 -307.5v-287 q0 -82 10.5 -133.5t39.5 -89t79.5 -54.5t130.5 -22q56 -6 56 -55v-47q0 -55 -56 -55q-261 -9 -368 88.5t-107 330.5v287q0 74 -5 123t-19 94.5t-41 73t-71 47.5t-108 29q-51 9 -51 59z" />
<glyph unicode="|" horiz-adv-x="421" d="M129 -457v1979q0 55 53 55h56q55 0 55 -55v-1979q0 -55 -55 -55h-56q-53 0 -53 55z" />
<glyph unicode="}" horiz-adv-x="968" d="M51 -518q0 52 55 55q147 9 204 65.5t57 196.5v307q0 109 10.5 179.5t39 127t78.5 89.5t130 53q-149 29 -203.5 123.5t-54.5 308.5v270q0 82 -10.5 133.5t-39.5 89t-79.5 54.5t-131.5 22q-55 3 -55 56v47q0 55 55 55q263 7 369.5 -90.5t106.5 -331.5v-270 q0 -74 4.5 -122.5t19 -94t41 -72.5t70.5 -47t108 -29q55 -13 52 -59l-3 -63q-3 -49 -53 -58q-138 -20 -188.5 -89.5t-50.5 -231.5v-342q0 -126 -28 -210.5t-88.5 -134.5t-148 -70t-213.5 -17q-53 0 -53 53v47z" />
<glyph unicode="~" horiz-adv-x="1110" d="M104 498q31 89 68.5 148.5t77 87.5t72.5 38t73 10q62 0 168 -41l37 -14q66 -27 113 -27q83 0 145 134q26 49 72 32l49 -18q52 -19 33 -74q-31 -88 -68 -147t-76 -87t-72.5 -38t-72.5 -10q-69 0 -168 38l-39 15q-66 28 -113 28q-80 0 -143 -135q-27 -50 -72 -30l-51 16 q-51 22 -33 74z" />
<glyph unicode="&#xa1;" horiz-adv-x="557" d="M68 926q0 64 41 104.5t106 40.5q64 0 104.5 -42.5t40.5 -108.5q0 -61 -41.5 -103.5t-107.5 -42.5q-64 0 -103.5 43.5t-39.5 108.5zM82 -346q4 395 18 752q4 79 11.5 116t19.5 49.5t37 12.5h94q36 0 48 -31.5t18 -146.5q7 -159 11.5 -347t5.5 -297l1 -108q0 -55 -53 -55 h-156q-55 0 -55 55z" />
<glyph unicode="&#xa2;" d="M143 512q0 134 39.5 239t107.5 169.5t152.5 100t182.5 40.5l6 160q2 19 10 27t29 7l47 -2q36 0 33 -36l-7 -158q83 -4 156 -31q52 -12 45 -72l-8 -71q-6 -54 -41 -54q-4 0 -25 6.5t-58 14t-77 10.5l-22 -680q69 -1 139 19t72 20q43 0 43 -53l-2 -72q-3 -53 -47 -69 q-101 -43 -213 -43l-7 -156q0 -38 -36 -35l-48 2q-21 1 -27.5 9.5t-6.5 27.5l6 154q-199 23 -321 160t-122 366zM391 541q0 -142 54.5 -228.5t148.5 -115.5l24 661q-104 -14 -165.5 -92.5t-61.5 -224.5z" />
<glyph unicode="&#xa3;" d="M80 106q-3 43 39 76q96 56 137 118t41 146q0 60 -27 191h-153q-35 0 -35 35v59q0 35 35 35h125q-21 110 -21 199q0 132 44 231.5t122.5 159t177 88.5t215.5 29q104 0 209 -27q56 -12 47 -72l-8 -69q-9 -54 -55 -54q-6 0 -34 5.5t-73 10.5t-92 5q-59 0 -109.5 -16 t-94.5 -50.5t-69.5 -98.5t-25.5 -151q0 -72 25 -190h381q37 0 37 -35v-59q0 -35 -37 -35h-355q23 -113 23 -170q0 -174 -135 -274q73 12 182 12h436q64 0 58 -64l-7 -84q-6 -57 -65 -57h-746q-49 0 -85 -2t-50 -2q-52 0 -55 55z" />
<glyph unicode="&#xa4;" horiz-adv-x="1040" d="M96 283q-36 31 0 63l109 111q-60 85 -60 198q0 114 60 199l-109 111q-32 33 0 65l39 39q33 29 66 0l108 -111q89 64 201 64q113 0 199 -64l112 111q32 32 64 0l39 -39q36 -36 2 -65l-111 -111q59 -88 59 -199q0 -115 -59 -198l111 -111q17 -14 16 -31t-18 -32l-39 -39 q-31 -35 -64 -2l-112 108q-88 -59 -199 -59q-110 0 -201 59l-108 -106q-33 -33 -66 0zM293 655q0 -89 64 -153t153 -64t153 64t64 153t-64 153t-153 64t-153 -64t-64 -153z" />
<glyph unicode="&#xa5;" d="M28.5 1433.5q12.5 20.5 49.5 20.5h158q48 0 71 -45l309 -535l304 535q23 45 71 45h129q37 0 49.5 -20.5t-6.5 -51.5l-401 -677h323q37 0 37 -35v-45q0 -20 -9 -27.5t-28 -7.5h-360v-197h360q37 0 37 -35v-45q0 -34 -37 -34h-360v-218q0 -61 -61 -61h-134q-59 0 -59 61 v218h-354q-37 0 -37 34v45q0 35 37 35h354v197h-354q-37 0 -37 35v45q0 35 37 35h313l-395 677q-19 31 -6.5 51.5z" />
<glyph unicode="&#xa6;" horiz-adv-x="421" d="M129 332q0 55 53 55h56q55 0 55 -55v-789q0 -55 -55 -55h-56q-53 0 -53 55v789zM129 733v789q0 55 53 55h56q55 0 55 -55v-789q0 -55 -55 -55h-56q-25 0 -39 14.5t-14 40.5z" />
<glyph unicode="&#xa7;" horiz-adv-x="1337" d="M133 915q0 143 89.5 264t234.5 197q89 48 196.5 71t202.5 23q105 0 217 -28q26 -4 38 -23t9 -47l-8 -82q-7 -51 -47 -51q-5 0 -62.5 11.5t-115.5 11.5q-67 0 -111 -21q-45 -23 -70.5 -61.5t-25.5 -83.5q0 -53 34 -120.5t144 -193.5l76 -88q172 -200 233.5 -319.5 t61.5 -231.5q0 -144 -89.5 -265t-234.5 -197q-89 -48 -196 -70.5t-203 -22.5q-97 0 -215 27q-56 12 -47 72l8 80q3 28 16 40.5t29 12.5q4 0 64.5 -12.5t113.5 -12.5q65 0 113 23q44 22 70 60.5t26 82.5q0 53 -34.5 119.5t-145.5 193.5l-76 88q-173 199 -234 319.5t-61 233.5 zM340 944q0 -78 50.5 -179t191.5 -265l75 -88q130 -152 177 -240t47 -154q0 -103 -74 -174q98 30 157.5 106t59.5 165q0 77 -50.5 178t-191.5 266l-75 88q-130 150 -177 238t-47 153q0 107 72 176q-98 -32 -156.5 -107t-58.5 -163z" />
<glyph unicode="&#xa8;" horiz-adv-x="874" d="M102 1395q0 60 34.5 95.5t96.5 35.5q61 0 94 -36.5t33 -96.5q0 -65 -36.5 -101.5t-94.5 -36.5t-92.5 39.5t-34.5 100.5zM514 1395q0 59 35.5 95t97.5 36q61 0 93 -36t32 -97q0 -65 -35.5 -101.5t-95.5 -36.5q-58 0 -92.5 39.5t-34.5 100.5z" />
<glyph unicode="&#xa9;" horiz-adv-x="1810" d="M106 723q0 177 66 323t178 241.5t259.5 147.5t312.5 52q166 0 309.5 -53t248 -149t164.5 -240t60 -318q0 -143 -42 -266.5t-117.5 -214.5t-177 -156.5t-223 -98t-253.5 -32.5q-166 0 -310 53.5t-249 150.5t-165.5 241.5t-60.5 318.5zM279 739q0 -290 166.5 -462.5 t465.5 -172.5q281 0 453 161t172 444q0 288 -168 461t-467 173q-184 0 -324 -70.5t-219 -208t-79 -325.5zM473 725q0 133 63.5 229.5t165 142.5t226.5 46q100 0 202 -29q40 -9 37 -53l-4 -60q-5 -38 -33 -38q-9 0 -67 13t-125 13q-115 0 -189.5 -63.5t-74.5 -188.5 q0 -130 72.5 -205t207.5 -75q68 0 137 20.5t72 20.5q35 0 33 -43l-2 -56q-3 -39 -39 -53q-114 -43 -215 -43q-185 0 -293 70q-84 54 -129 145t-45 207z" />
<glyph unicode="&#xaa;" horiz-adv-x="743" d="M61 981q0 41 16.5 76.5t56 69t117 52.5t187.5 19v23q0 60 -26.5 89t-100.5 29q-47 0 -92.5 -10.5t-73.5 -21.5t-32 -11q-17 0 -19 19l-8 74q-3 21 16 30q121 56 238 56q256 0 256 -234v-227q0 -44 11 -64.5t52 -27.5q11 -2 17.5 -9.5t5.5 -17.5l-6 -55q-3 -24 -23 -27 q-36 -4 -57 -4q-101 0 -135 78q-81 -78 -201 -78q-89 0 -144 46.5t-55 125.5zM211 1001q0 -32 24.5 -51.5t73.5 -19.5q67 0 129 47v119q-67 2 -114.5 -6t-70.5 -23.5t-32.5 -31.5t-9.5 -34z" />
<glyph unicode="&#xab;" horiz-adv-x="1169" d="M76 496q-29 38 0 77l348 412q34 43 76 8l71 -57q43 -37 7 -76l-271 -315l283 -344q19 -20 16.5 -40.5t-24.5 -35.5l-82 -64q-42 -31 -76 11zM610 496q-26 39 2 77l306 363q34 40 77 6l56 -45q43 -36 6 -76l-238 -278l250 -305q17 -20 14.5 -40.5t-24.5 -35.5l-64 -49 q-44 -32 -75 10z" />
<glyph unicode="&#xac;" horiz-adv-x="1142" d="M82 653v68q0 55 55 55h869q53 0 53 -55v-324q0 -55 -53 -55h-70q-55 0 -55 55v201h-744q-55 0 -55 55z" />
<glyph unicode="&#xad;" horiz-adv-x="665" d="M51 522v82q0 55 55 55h453q55 0 55 -55v-82q0 -55 -55 -55h-453q-55 0 -55 55z" />
<glyph unicode="&#xae;" horiz-adv-x="1550" d="M106 842q0 151 53.5 274t146 203.5t216 124t264.5 43.5q192 0 341.5 -78.5t233 -224.5t83.5 -338q0 -151 -53 -274.5t-145.5 -204t-215.5 -124.5t-264 -44q-192 0 -342 78.5t-234 225.5t-84 339zM250 858q0 -159 57.5 -278t177 -188.5t289.5 -69.5q240 0 383 132.5 t143 374.5q0 243 -135 389t-387 146q-241 0 -384.5 -132.5t-143.5 -373.5zM512 559v606q0 45 47 45h139q63 0 116.5 -12t97 -36.5t68 -68t24.5 -102.5q0 -57 -31 -105.5t-88 -74.5l98 -113q60 -68 102 -86q26 -12 32.5 -25.5t-1.5 -41.5q-8 -23 -19.5 -31t-39.5 -8 q-67 0 -115 30.5t-113 116.5l-88 115h-84v-209q0 -47 -45 -47h-53q-47 0 -47 47zM657 866h74q54 0 87.5 30t33.5 85q0 125 -172 125h-23v-240z" />
<glyph unicode="&#xaf;" horiz-adv-x="739" d="M102 1343v64q0 55 56 55h424q55 0 55 -55v-64q0 -53 -55 -53h-424q-56 0 -56 53z" />
<glyph unicode="&#xb0;" horiz-adv-x="860" d="M59 1102q0 165 110.5 269t268.5 104q156 0 258.5 -103.5t102.5 -269.5q0 -165 -110.5 -268t-268.5 -103q-156 0 -258.5 102.5t-102.5 268.5zM246 1104q0 -90 54 -146.5t128 -56.5q76 0 130 54.5t54 144.5q0 91 -54.5 147t-129.5 56q-74 0 -128 -54.5t-54 -144.5z" />
<glyph unicode="&#xb1;" horiz-adv-x="1142" d="M82 68v67q0 55 55 55h869q53 0 53 -55v-67q0 -56 -53 -56h-869q-26 0 -40.5 15t-14.5 41zM82 819v68q0 55 55 55h344v309q0 56 54 56h69q55 0 55 -56v-309h347q53 0 53 -55v-68q0 -55 -53 -55h-347v-309q0 -56 -55 -56h-69q-54 0 -54 56v309h-344q-55 0 -55 55z" />
<glyph unicode="&#xb4;" horiz-adv-x="741" d="M121 1282q-20 50 26 74l381 241q53 29 72 -28l23 -82q16 -49 -31 -70l-381 -219q-53 -26 -72 29z" />
<glyph unicode="&#xb6;" horiz-adv-x="1390" d="M143 975q0 160 76.5 276.5t214.5 163.5q108 39 305 39h86q62 0 62 -61v-1209q0 -151 -29 -235t-90 -144q60 14 106 42.5t85.5 81t60 139t20.5 204.5v1121q0 61 62 61h86q61 0 61 -61v-1076q0 -164 -35.5 -290.5t-99 -211t-157.5 -138.5t-203.5 -77.5t-243.5 -23.5 q-138 0 -256 31q-50 11 -53 67l-8 88q-5 58 43 58q8 0 75 -15.5t121 -15.5q246 0 246 393v353q-167 -4 -291 47q-111 45 -177.5 150t-66.5 243z" />
<glyph unicode="&#xb7;" horiz-adv-x="514" d="M106 635q0 64 42.5 105.5t111.5 41.5q66 0 107 -43t41 -112q0 -64 -43 -106t-111 -42q-66 0 -107 44t-41 112z" />
<glyph unicode="&#xb8;" horiz-adv-x="604" d="M102 -412q0 33 31 33q3 0 35.5 -6t64.5 -6q47 0 72 20.5t25 53.5q0 36 -33.5 64.5t-101.5 41.5q-41 9 -55.5 19t-10.5 30l8 37q5 19 18.5 26t47.5 7q66 0 133 -25.5t116.5 -79.5t49.5 -122q0 -88 -66 -148.5t-178 -60.5q-66 0 -113 16q-43 11 -43 51v49z" />
<glyph unicode="&#xba;" horiz-adv-x="808" d="M78 1143q0 158 98 245t246 87q145 0 234 -84t89 -236q0 -84 -27.5 -151t-74.5 -108.5t-107 -63t-128 -21.5q-86 0 -159.5 35.5t-122 112.5t-48.5 184zM244 1149q0 -94 46.5 -150.5t119.5 -56.5h8q72 0 116 52t44 149q0 94 -45 147t-123 53q-73 0 -119.5 -47t-46.5 -147z " />
<glyph unicode="&#xbb;" horiz-adv-x="1169" d="M86 859.5q3 20.5 25 35.5l63 49q44 33 76 -10l309 -373q26 -40 -2 -78l-305 -362q-35 -40 -78 -6l-55 45q-43 36 -6 76l237 278l-250 305q-17 20 -14 40.5zM563.5 896.5q2.5 20.5 24.5 35.5l82 63q42 31 75 -10l349 -424q29 -39 0 -78l-349 -411q-35 -44 -75 -9l-72 58 q-43 36 -6 76l270 315l-282 344q-19 20 -16.5 40.5z" />
<glyph unicode="&#xbc;" horiz-adv-x="1720" d="M72 1430q-3 49 47 55l186 20h98q50 0 50 -51v-788q0 -52 -50 -52h-67q-51 0 -51 52v690l-156 -13q-49 -6 -55 48zM403 29l689 1484q20 47 59 31l35 -16q35 -17 14 -66l-688 -1485q-20 -45 -59 -28l-35 16q-36 14 -15 64zM911 248v41q0 29 21 63l356 502q24 33 62 33h88 q51 0 51 -51v-496h67q25 0 38 -14t10 -39l-2 -41q-3 -49 -39 -49h-74v-146q0 -51 -51 -51h-66q-51 0 -51 51v146h-358q-52 0 -52 51zM1087 340h234v235l4 105z" />
<glyph unicode="&#xbd;" horiz-adv-x="1720" d="M72 1430q-3 49 47 55l186 20h98q50 0 50 -51v-788q0 -52 -50 -52h-67q-51 0 -51 52v690l-156 -13q-49 -6 -55 48zM381 29l688 1484q20 47 59 31l35 -16q36 -17 15 -66l-689 -1485q-20 -45 -59 -28l-35 16q-35 14 -14 64zM1073 51v39q0 34 27 64l139 141 q126 129 169.5 199t43.5 127q0 63 -44.5 100t-117.5 37q-61 0 -118.5 -20.5t-59.5 -20.5q-31 0 -37 43l-2 35q-3 27 8.5 42t44.5 27q93 39 193 39q141 0 227 -79.5t86 -190.5q0 -87 -53.5 -181t-194.5 -225l-81 -77h325q26 0 39 -15t10 -41l-4 -47q-3 -47 -53 -47h-496 q-51 0 -51 51z" />
<glyph unicode="&#xbe;" horiz-adv-x="1720" d="M76 711v41q0 43 33 43q11 0 42 -14t78.5 -28t96.5 -14q81 0 122 32.5t41 80.5q0 107 -200 141q-51 9 -51 54v30q0 47 49 56q184 35 184 137q0 45 -37 76.5t-110 31.5q-53 0 -114 -21.5t-67 -21.5q-35 0 -39 39l-2 33q-6 48 41 66q102 45 207 45q140 0 216.5 -67.5 t76.5 -164.5q0 -65 -41.5 -122t-132.5 -87q105 -31 152 -91.5t47 -129.5q0 -102 -87 -180t-251 -78q-114 0 -217 53q-37 14 -37 60zM465 29l688 1484q20 47 59 31l35 -16q36 -17 15 -66l-689 -1485q-20 -45 -59 -28l-35 16q-35 14 -14 64zM926 248v41q0 30 20 63l357 502 q24 33 61 33h88q51 0 51 -51v-496h68q25 0 37.5 -14t9.5 -39l-2 -41q-3 -49 -39 -49h-74v-146q0 -51 -51 -51h-66q-51 0 -51 51v146h-358q-51 0 -51 51zM1102 340h233v235l4 105z" />
<glyph unicode="&#xbf;" horiz-adv-x="872" d="M84 -109q0 176 168 308l47 37q63 50 86 90.5t23 83.5q0 26 -13.5 60t-13.5 40q0 35 43 47l94 29q49 13 78 -37q59 -94 59 -182q0 -63 -33 -125t-128 -136l-48 -36q-58 -45 -81 -82.5t-23 -77.5q0 -60 53 -99.5t140 -39.5q50 0 106.5 12t63.5 12q40 0 45 -47l10 -82 q6 -51 -55 -67q-100 -31 -224 -31q-96 0 -173.5 28.5t-125 75t-73 103t-25.5 116.5zM346 915q0 63 41 104.5t107 41.5q64 0 104.5 -43t40.5 -109q0 -61 -42 -103t-108 -42q-64 0 -103.5 43t-39.5 108z" />
<glyph unicode="&#xc0;" horiz-adv-x="1529" d="M113 76l471 1321q17 53 73 53l177 8q58 0 75 -53l502 -1329q14 -34 -0.5 -55t-52.5 -21h-144q-54 0 -75 53l-113 309h-563l-105 -307q-18 -55 -73 -55h-119q-36 0 -50.5 20.5t-2.5 55.5zM471 1829l8 69q13 69 76 44l391 -177q51 -20 39 -73l-8 -52q-6 -29 -26.5 -40 t-49.5 -1l-387 154q-52 18 -43 76zM526 559h430l-163 449l-62 178q-1 -1 -6.5 -22.5t-18.5 -65.5t-28 -90z" />
<glyph unicode="&#xc1;" horiz-adv-x="1529" d="M113 76l471 1321q17 53 73 53l177 8q58 0 75 -53l502 -1329q14 -34 -0.5 -55t-52.5 -21h-144q-54 0 -75 53l-113 309h-563l-105 -307q-18 -55 -73 -55h-119q-36 0 -50.5 20.5t-2.5 55.5zM526 559h430l-163 449l-62 178q-1 -1 -6.5 -22.5t-18.5 -65.5t-28 -90zM528 1692 q-12 52 41 73l392 177q63 25 73 -44l10 -71q9 -56 -45 -74l-387 -154q-59 -21 -75 41z" />
<glyph unicode="&#xc2;" horiz-adv-x="1529" d="M113 76l471 1321q17 53 73 53l177 8q58 0 75 -53l502 -1329q14 -34 -0.5 -55t-52.5 -21h-144q-54 0 -75 53l-113 309h-563l-105 -307q-18 -55 -73 -55h-119q-36 0 -50.5 20.5t-2.5 55.5zM416 1642q-42 48 6 87l295 229q40 32 86 2l284 -219q53 -37 11 -86l-47 -45 q-41 -41 -86 -8l-217 170l-216 -168q-46 -34 -86 6zM526 559h430l-163 449l-62 178q-1 -1 -6.5 -22.5t-18.5 -65.5t-28 -90z" />
<glyph unicode="&#xc3;" horiz-adv-x="1529" d="M113 76l471 1321q17 53 73 53l177 8q58 0 75 -53l502 -1329q14 -34 -0.5 -55t-52.5 -21h-144q-54 0 -75 53l-113 309h-563l-105 -307q-18 -55 -73 -55h-119q-36 0 -50.5 20.5t-2.5 55.5zM381 1679q24 64 54 107t63 63.5t61.5 27.5t63.5 7q52 0 141 -33l24 -10 q54 -20 86 -20q58 0 101 77q9 10 12 13.5t10.5 11t12 10t11 5t13.5 2t15 -2.5l45 -14q49 -11 24 -76q-24 -64 -53.5 -106.5t-62 -63t-61 -28t-62.5 -7.5q-55 0 -144 33l-24 11q-54 20 -84 20q-61 0 -103 -78l-16.5 -19.5t-16 -14.5t-18.5 -7t-22 2l-45 15q-46 10 -25 75z M526 559h430l-163 449l-62 178q-1 -1 -6.5 -22.5t-18.5 -65.5t-28 -90z" />
<glyph unicode="&#xc4;" horiz-adv-x="1529" d="M113 76l471 1321q17 53 73 53l177 8q58 0 75 -53l502 -1329q14 -34 -0.5 -55t-52.5 -21h-144q-54 0 -75 53l-113 309h-563l-105 -307q-18 -55 -73 -55h-119q-36 0 -50.5 20.5t-2.5 55.5zM414 1763q0 58 34.5 94.5t96.5 36.5q61 0 94 -36.5t33 -94.5q0 -65 -36 -101 t-95 -36q-57 0 -92 39.5t-35 97.5zM526 559h430l-163 449l-62 178q-1 -1 -6.5 -22.5t-18.5 -65.5t-28 -90zM836 1763q0 58 34.5 94.5t96.5 36.5q61 0 94 -36.5t33 -94.5q0 -65 -36.5 -101t-96.5 -36q-57 0 -91 39t-34 98z" />
<glyph unicode="&#xc5;" horiz-adv-x="1529" d="M113 76l471 1321q17 53 73 53l177 8q58 0 75 -53l502 -1329q14 -34 -0.5 -55t-52.5 -21h-144q-54 0 -75 53l-113 309h-563l-105 -307q-18 -55 -73 -55h-119q-36 0 -50.5 20.5t-2.5 55.5zM469 1747q0 116 82.5 187t208.5 71q124 0 200 -67t76 -183q0 -115 -83 -185.5 t-208 -70.5t-200.5 66.5t-75.5 181.5zM526 559h430l-163 449l-62 178q-1 -1 -6.5 -22.5t-18.5 -65.5t-28 -90zM639 1755q0 -59 31.5 -96t83.5 -37q49 0 79.5 33t30.5 92t-30 96t-82 37q-49 0 -81 -33.5t-32 -91.5z" />
<glyph unicode="&#xc6;" horiz-adv-x="1996" d="M48 22q-13 22 7 56l770 1331q23 45 78 45h807q66 0 66 -65v-82q0 -66 -66 -66h-483v-401h446q66 0 66 -66v-76q0 -65 -66 -65h-446v-420h532q32 0 49.5 -18t16.5 -50l-8 -82q-3 -63 -68 -63h-711q-65 0 -65 66v296h-477l-181 -315q-23 -47 -77 -47h-138q-39 0 -52 22z M602 559h371v684q-25 -64 -94 -188z" />
<glyph unicode="&#xc7;" horiz-adv-x="1558" d="M117 723q0 207 76.5 358.5t203.5 245.5q205 148 525 148q193 0 370 -60q57 -15 51 -78l-8 -84q-5 -55 -55 -55q-9 0 -58.5 15t-133 29.5t-173.5 14.5q-233 0 -366 -110q-170 -137 -170 -406q0 -154 63.5 -275.5t191 -194t300.5 -72.5q95 0 186.5 19.5t149.5 38.5t71 19 q48 0 45 -59l-6 -86q-3 -57 -55 -74q-206 -77 -407 -77q-298 0 -486 122q-147 93 -231 257t-84 364zM629 -463l2 49q1 24 9 33.5t24 9.5q3 0 32.5 -8t57.5 -8q40 0 63 19t23 49q0 32 -33.5 59.5t-101.5 40.5q-39 6 -54 18t-12 35l8 43q6 37 68 37q36 0 75.5 -8t80.5 -26 t73.5 -44t53 -65.5t20.5 -85.5q0 -94 -67.5 -159t-180.5 -65q-52 0 -98 19q-24 8 -34 20.5t-9 36.5z" />
<glyph unicode="&#xc8;" horiz-adv-x="1216" d="M193 66v1323q0 65 67 65h670q65 0 65 -65v-82q0 -66 -65 -66h-481v-401h444q68 0 68 -66v-76q0 -65 -68 -65h-444v-420h530q68 0 65 -68l-8 -82q-3 -63 -67 -63h-709q-67 0 -67 66zM293 1829l8 69q13 69 76 44l391 -177q51 -20 39 -73l-8 -52q-6 -29 -26.5 -40t-49.5 -1 l-387 154q-52 18 -43 76z" />
<glyph unicode="&#xc9;" horiz-adv-x="1216" d="M193 66v1323q0 65 67 65h670q65 0 65 -65v-82q0 -66 -65 -66h-481v-401h444q68 0 68 -66v-76q0 -65 -68 -65h-444v-420h530q68 0 65 -68l-8 -82q-3 -63 -67 -63h-709q-67 0 -67 66zM391 1692q-12 52 41 73l391 177q31 12 50 0t24 -44l10 -71q9 -56 -45 -74l-387 -154 q-60 -22 -76 41z" />
<glyph unicode="&#xca;" horiz-adv-x="1216" d="M193 66v1323q0 65 67 65h670q65 0 65 -65v-82q0 -66 -65 -66h-481v-401h444q68 0 68 -66v-76q0 -65 -68 -65h-444v-420h530q68 0 65 -68l-8 -82q-3 -63 -67 -63h-709q-67 0 -67 66zM270 1642q-42 48 6 87l295 229q40 32 86 2l285 -219q25 -17 27.5 -40t-17.5 -46l-47 -45 q-41 -41 -86 -8l-217 170l-215 -168q-46 -34 -86 6z" />
<glyph unicode="&#xcb;" horiz-adv-x="1216" d="M193 66v1323q0 65 67 65h670q65 0 65 -65v-82q0 -66 -65 -66h-481v-401h444q68 0 68 -66v-76q0 -65 -68 -65h-444v-420h530q68 0 65 -68l-8 -82q-3 -63 -67 -63h-709q-67 0 -67 66zM268 1763q0 58 34.5 94.5t96.5 36.5q61 0 94 -36.5t33 -94.5q0 -65 -36 -101t-95 -36 q-57 0 -92 39.5t-35 97.5zM690 1763q0 58 34.5 94.5t96.5 36.5q61 0 94 -36.5t33 -94.5q0 -65 -36.5 -101t-96.5 -36q-57 0 -91 39t-34 98z" />
<glyph unicode="&#xcc;" horiz-adv-x="641" d="M49 1829l8 69q13 69 76 44l391 -177q51 -20 39 -73l-8 -52q-6 -29 -26.5 -40t-49.5 -1l-387 154q-52 18 -43 76zM193 66v1323q0 65 67 65h123q66 0 66 -65v-1323q0 -32 -17.5 -49t-48.5 -17h-123q-67 0 -67 66z" />
<glyph unicode="&#xcd;" horiz-adv-x="641" d="M88 1692q-12 52 41 73l391 177q31 12 50 0t24 -44l10 -71q9 -56 -45 -74l-387 -154q-60 -22 -76 41zM193 66v1323q0 65 67 65h123q66 0 66 -65v-1323q0 -32 -17.5 -49t-48.5 -17h-123q-67 0 -67 66z" />
<glyph unicode="&#xce;" horiz-adv-x="641" d="M-16 1642q-42 48 6 87l295 229q40 32 86 2l284 -219q53 -37 11 -86l-48 -45q-41 -41 -86 -8l-217 170l-215 -168q-46 -34 -86 6zM193 66v1323q0 65 67 65h123q66 0 66 -65v-1323q0 -32 -17.5 -49t-48.5 -17h-123q-67 0 -67 66z" />
<glyph unicode="&#xcf;" horiz-adv-x="641" d="M-18 1763q0 58 34.5 94.5t96.5 36.5q61 0 94 -36.5t33 -94.5q0 -65 -36 -101t-95 -36q-57 0 -92 39.5t-35 97.5zM193 66v1323q0 65 67 65h123q66 0 66 -65v-1323q0 -32 -17.5 -49t-48.5 -17h-123q-67 0 -67 66zM403 1763q0 58 35 94.5t97 36.5q61 0 94 -36.5t33 -94.5 q0 -65 -37 -101t-97 -36q-57 0 -91 39t-34 98z" />
<glyph unicode="&#xd0;" horiz-adv-x="1646" d="M10 717v35q0 65 66 65h117v572q0 64 67 67h338q495 0 721 -221q207 -189 207 -487q0 -154 -55 -291t-166 -238q-106 -109 -255.5 -165t-365.5 -56q-260 0 -424 2q-67 0 -67 66v585h-117q-66 0 -66 66zM449 213q100 -4 235 -4q312 0 455 172q125 134 125 344 q0 218 -144 354q-87 89 -212 126.5t-312 37.5q-94 0 -147 -2v-424h311q67 0 67 -65v-35q0 -66 -67 -66h-311v-438z" />
<glyph unicode="&#xd1;" horiz-adv-x="1679" d="M193 66v1323q0 65 67 65h162q52 0 80 -41l747 -1038q-4 94 -4 188v826q0 65 66 65h110q66 0 66 -65v-1323q0 -66 -66 -66h-164q-51 0 -79 41l-748 1046q4 -47 4 -227v-794q0 -66 -65 -66h-109q-67 0 -67 66zM473 1679q24 64 54 107t63 63.5t61.5 27.5t63.5 7 q52 0 141 -33l25 -10q54 -20 86 -20q57 0 100 77q9 10 12 13.5t10.5 11t12 10t11 5t13.5 2t15 -2.5l45 -14q49 -11 24 -76q-24 -64 -53.5 -106.5t-62 -63t-61 -28t-62.5 -7.5q-55 0 -144 33l-24 11q-54 20 -84 20q-61 0 -103 -78l-16.5 -19.5t-16 -14.5t-18.5 -7t-22 2 l-45 15q-46 10 -25 75z" />
<glyph unicode="&#xd2;" horiz-adv-x="1765" d="M117 743q0 199 84 352t229 248q196 132 461 132q361 0 567 -218q191 -201 191 -505q0 -207 -87 -377t-239 -271q-180 -124 -457 -124q-137 0 -261 41.5t-218 115.5q-130 103 -200 259.5t-70 346.5zM381 762q0 -136 45.5 -252t128.5 -193q58 -55 142 -88.5t171 -33.5h13 q185 0 305 88q95 70 146.5 187.5t51.5 260.5q0 111 -36 210t-103 171q-142 148 -377 148q-170 0 -299 -93q-88 -63 -138 -168.5t-50 -236.5zM590 1829l8 69q13 69 76 44l391 -177q51 -20 39 -73l-8 -52q-6 -29 -26.5 -40t-49.5 -1l-387 154q-52 18 -43 76z" />
<glyph unicode="&#xd3;" horiz-adv-x="1765" d="M117 743q0 199 84 352t229 248q196 132 461 132q361 0 567 -218q191 -201 191 -505q0 -207 -87 -377t-239 -271q-180 -124 -457 -124q-137 0 -261 41.5t-218 115.5q-130 103 -200 259.5t-70 346.5zM381 762q0 -136 45.5 -252t128.5 -193q58 -55 142 -88.5t171 -33.5h13 q185 0 305 88q95 70 146.5 187.5t51.5 260.5q0 111 -36 210t-103 171q-142 148 -377 148q-170 0 -299 -93q-88 -63 -138 -168.5t-50 -236.5zM670 1692q-12 52 41 73l391 177q31 12 50 0t24 -44l10 -71q9 -56 -45 -74l-387 -154q-60 -22 -76 41z" />
<glyph unicode="&#xd4;" horiz-adv-x="1765" d="M117 743q0 199 84 352t229 248q196 132 461 132q361 0 567 -218q191 -201 191 -505q0 -207 -87 -377t-239 -271q-180 -124 -457 -124q-137 0 -261 41.5t-218 115.5q-130 103 -200 259.5t-70 346.5zM381 762q0 -136 45.5 -252t128.5 -193q58 -55 142 -88.5t171 -33.5h13 q185 0 305 88q95 70 146.5 187.5t51.5 260.5q0 111 -36 210t-103 171q-142 148 -377 148q-170 0 -299 -93q-88 -63 -138 -168.5t-50 -236.5zM545 1642q-42 48 6 87l295 229q40 32 86 2l285 -219q25 -17 27.5 -40t-17.5 -46l-47 -45q-41 -41 -86 -8l-217 170l-215 -168 q-46 -34 -87 6z" />
<glyph unicode="&#xd5;" horiz-adv-x="1765" d="M117 743q0 199 84 352t229 248q196 132 461 132q361 0 567 -218q191 -201 191 -505q0 -207 -87 -377t-239 -271q-180 -124 -457 -124q-137 0 -261 41.5t-218 115.5q-130 103 -200 259.5t-70 346.5zM381 762q0 -136 45.5 -252t128.5 -193q58 -55 142 -88.5t171 -33.5h13 q185 0 305 88q95 70 146.5 187.5t51.5 260.5q0 111 -36 210t-103 171q-142 148 -377 148q-170 0 -299 -93q-88 -63 -138 -168.5t-50 -236.5zM512 1679q24 64 54 107t63 63.5t61.5 27.5t63.5 7q52 0 141 -33l25 -10q54 -20 86 -20q57 0 100 77q9 10 12 13.5t10.5 11t12 10 t11 5t13.5 2t15 -2.5l45 -14q49 -11 24 -76q-24 -64 -53.5 -106.5t-62 -63t-61 -28t-62.5 -7.5q-55 0 -144 33l-24 11q-54 20 -84 20q-61 0 -103 -78l-16.5 -19.5t-16 -14.5t-18.5 -7t-22 2l-45 15q-46 10 -25 75z" />
<glyph unicode="&#xd6;" horiz-adv-x="1765" d="M117 743q0 199 84 352t229 248q196 132 461 132q361 0 567 -218q191 -201 191 -505q0 -207 -87 -377t-239 -271q-180 -124 -457 -124q-137 0 -261 41.5t-218 115.5q-130 103 -200 259.5t-70 346.5zM381 762q0 -136 45.5 -252t128.5 -193q58 -55 142 -88.5t171 -33.5h13 q185 0 305 88q95 70 146.5 187.5t51.5 260.5q0 111 -36 210t-103 171q-142 148 -377 148q-170 0 -299 -93q-88 -63 -138 -168.5t-50 -236.5zM543 1763q0 58 34.5 94.5t96.5 36.5q61 0 94 -36.5t33 -94.5q0 -65 -36.5 -101t-94.5 -36q-57 0 -92 39.5t-35 97.5zM965 1763 q0 58 34.5 94.5t96.5 36.5q61 0 94 -36.5t33 -94.5q0 -65 -36.5 -101t-96.5 -36q-57 0 -91 39t-34 98z" />
<glyph unicode="&#xd7;" horiz-adv-x="1142" d="M141 215q-36 39 0 78l308 305l-308 305q-37 41 0 78l47 47q40 40 78 0l305 -307l308 307q37 40 75 0l47 -47q41 -37 0 -78l-307 -305l307 -305q41 -41 0 -78l-47 -47q-38 -38 -75 0l-308 305l-305 -305q-38 -38 -78 0z" />
<glyph unicode="&#xd8;" horiz-adv-x="1765" d="M117 743q0 199 84 352t229 248q196 132 461 132q192 0 330 -62l112 180q29 51 86 19l47 -29q50 -33 19 -84l-109 -168q133 -100 202 -249t71 -330q1 -206 -86 -376.5t-240 -271.5q-180 -124 -457 -124q-175 0 -319 63l-105 -166q-32 -51 -86 -20l-47 28q-49 32 -18 84 l102 162q-137 107 -206.5 265t-69.5 347zM381 762q0 -262 151 -416l564 871q-96 45 -228 45q-171 0 -299 -95q-89 -62 -138.5 -167.5t-49.5 -237.5zM670 236q90 -43 198 -43h13q185 0 305 88q95 70 146.5 188.5t51.5 261.5q0 113 -36.5 214.5t-108.5 172.5z" />
<glyph unicode="&#xd9;" horiz-adv-x="1601" d="M186 705v684q0 65 66 65h123q65 0 65 -65v-693q0 -139 17.5 -227.5t68.5 -151.5q91 -118 293 -118q172 0 260 102q53 60 74 146.5t21 222.5v719q0 65 65 65h111q65 0 65 -65v-682q0 -205 -33 -332.5t-120 -218.5q-75 -81 -194 -130t-271 -49q-342 0 -496 205 q-66 87 -90.5 207.5t-24.5 315.5zM530 1829l9 69q13 68 75 44l392 -177q50 -20 38 -73l-8 -52q-6 -29 -26 -40t-49 -1l-388 154q-52 18 -43 76z" />
<glyph unicode="&#xda;" horiz-adv-x="1601" d="M186 705v684q0 65 66 65h123q65 0 65 -65v-693q0 -139 17.5 -227.5t68.5 -151.5q91 -118 293 -118q172 0 260 102q53 60 74 146.5t21 222.5v719q0 65 65 65h111q65 0 65 -65v-682q0 -205 -33 -332.5t-120 -218.5q-75 -81 -194 -130t-271 -49q-342 0 -496 205 q-66 87 -90.5 207.5t-24.5 315.5zM569 1692q-12 52 41 73l391 177q31 12 50 0t24 -44l10 -71q9 -56 -45 -74l-387 -154q-59 -21 -75 41z" />
<glyph unicode="&#xdb;" horiz-adv-x="1601" d="M186 705v684q0 65 66 65h123q65 0 65 -65v-693q0 -139 17.5 -227.5t68.5 -151.5q91 -118 293 -118q172 0 260 102q53 60 74 146.5t21 222.5v719q0 65 65 65h111q65 0 65 -65v-682q0 -205 -33 -332.5t-120 -218.5q-75 -81 -194 -130t-271 -49q-342 0 -496 205 q-66 87 -90.5 207.5t-24.5 315.5zM467 1642q-42 48 6 87l295 229q40 32 86 2l285 -219q25 -17 27.5 -40t-17.5 -46l-47 -45q-41 -41 -86 -8l-217 170l-215 -168q-46 -34 -86 6z" />
<glyph unicode="&#xdc;" horiz-adv-x="1601" d="M186 705v684q0 65 66 65h123q65 0 65 -65v-693q0 -139 17.5 -227.5t68.5 -151.5q91 -118 293 -118q172 0 260 102q53 60 74 146.5t21 222.5v719q0 65 65 65h111q65 0 65 -65v-682q0 -205 -33 -332.5t-120 -218.5q-75 -81 -194 -130t-271 -49q-342 0 -496 205 q-66 87 -90.5 207.5t-24.5 315.5zM465 1763q0 58 34.5 94.5t96.5 36.5q61 0 94 -36.5t33 -94.5q0 -65 -36.5 -101t-94.5 -36q-57 0 -92 39.5t-35 97.5zM887 1763q0 58 34.5 94.5t96.5 36.5q61 0 94 -36.5t33 -94.5q0 -65 -36.5 -101t-96.5 -36q-57 0 -91 39t-34 98z" />
<glyph unicode="&#xdd;" horiz-adv-x="1417" d="M71.5 1431q13.5 23 53.5 23h154q53 0 79 -45l367 -571l362 573q27 43 80 43h123q41 0 54 -23t-9 -57l-501 -764v-544q0 -66 -66 -66h-123q-65 0 -65 66v542l-500 766q-22 34 -8.5 57zM504 1692q-12 52 41 73l391 177q31 12 50 0t24 -44l10 -71q9 -56 -45 -74l-387 -154 q-60 -22 -76 41z" />
<glyph unicode="&#xde;" horiz-adv-x="1275" d="M193 66v1323q0 65 67 65h123q66 0 66 -65v-156h61q157 0 267.5 -26t201.5 -93q180 -131 180 -364q0 -142 -70 -258.5t-196 -174.5q-110 -52 -264 -49q-31 0 -48.5 17.5t-17.5 48.5v74q0 59 49 65q98 -3 162 35q58 34 91.5 92t33.5 129q0 143 -106 219q-94 68 -285 68h-59 v-950q0 -32 -17.5 -49t-48.5 -17h-123q-67 0 -67 66z" />
<glyph unicode="&#xdf;" horiz-adv-x="1460" d="M25 885v51q0 55 55 61l108 13v10q0 157 29 248q92 331 531 331q117 0 210 -27.5t150 -74.5t87 -106t30 -125q0 -81 -32 -147t-77.5 -108.5t-91 -79.5t-77.5 -78t-32 -85q0 -47 31.5 -81.5t110.5 -63.5l47 -19q242 -95 242 -295q0 -45 -13.5 -89t-45 -87t-78 -76 t-117.5 -53t-158 -20q-134 0 -254 45q-47 14 -47 67l-2 66q-3 51 43 51q9 0 42 -11t87.5 -22.5t116.5 -11.5q88 0 133 37.5t45 87.5q0 38 -30.5 71.5t-117.5 65.5l-47 19q-229 90 -229 280q0 51 17 95.5t44 78t59.5 64t65.5 59.5t60 58.5t44 67.5t17 81q0 73 -63 127.5 t-193 54.5q-133 0 -204 -64.5t-85 -172.5q-8 -49 -8 -136v-983q0 -59 -59 -59h-121q-60 0 -60 59v766h-104q-59 0 -59 60z" />
<glyph unicode="&#xe0;" horiz-adv-x="1101" d="M82 258q0 52 15 98t56 93t105.5 80.5t172 55t247.5 23.5v27q0 95 -19 137q-42 92 -180 92q-69 0 -131 -15t-100.5 -29.5t-50.5 -14.5q-40 0 -43 47l-7 53q-3 56 48 80q149 68 313 68q253 0 348 -148q33 -51 44 -118.5t11 -168.5v-337q0 -69 18.5 -99t69.5 -37 q33 -8 47 -22t13 -41l-2 -35q-3 -55 -56 -61t-86 -6q-157 0 -204 120q-131 -123 -316 -123q-138 0 -225.5 76.5t-87.5 204.5zM176 1487l25 82q15 60 71 28l381 -241q42 -26 27 -74l-21 -55q-19 -54 -71 -29l-381 219q-44 20 -31 70zM301 283q0 -56 43 -92.5t123 -36.5 q111 0 211 77v220q-108 2 -185 -12t-117 -39.5t-57.5 -54t-17.5 -62.5z" />
<glyph unicode="&#xe1;" horiz-adv-x="1101" d="M82 258q0 52 15 98t56 93t105.5 80.5t172 55t247.5 23.5v27q0 95 -19 137q-42 92 -180 92q-69 0 -131 -15t-100.5 -29.5t-50.5 -14.5q-40 0 -43 47l-7 53q-3 56 48 80q149 68 313 68q253 0 348 -148q33 -51 44 -118.5t11 -168.5v-337q0 -69 18.5 -99t69.5 -37 q33 -8 47 -22t13 -41l-2 -35q-3 -55 -56 -61t-86 -6q-157 0 -204 120q-131 -123 -316 -123q-138 0 -225.5 76.5t-87.5 204.5zM301 283q0 -56 43 -92.5t123 -36.5q111 0 211 77v220q-108 2 -185 -12t-117 -39.5t-57.5 -54t-17.5 -62.5zM315 1282q-19 50 27 74l381 241 q53 29 72 -28l22 -82q16 -49 -31 -70l-380 -219q-53 -26 -72 29z" />
<glyph unicode="&#xe2;" horiz-adv-x="1101" d="M82 258q0 52 15 98t56 93t105.5 80.5t172 55t247.5 23.5v27q0 95 -19 137q-42 92 -180 92q-69 0 -131 -15t-100.5 -29.5t-50.5 -14.5q-40 0 -43 47l-7 53q-3 56 48 80q149 68 313 68q253 0 348 -148q33 -51 44 -118.5t11 -168.5v-337q0 -69 18.5 -99t69.5 -37 q33 -8 47 -22t13 -41l-2 -35q-3 -55 -56 -61t-86 -6q-157 0 -204 120q-131 -123 -316 -123q-138 0 -225.5 76.5t-87.5 204.5zM176 1253q-39 39 4 76l295 262q39 36 78 0l276 -254q44 -38 2 -77l-57 -50q-38 -34 -78 0l-200 189l-203 -185q-39 -36 -78 3zM301 283 q0 -56 43 -92.5t123 -36.5q111 0 211 77v220q-108 2 -185 -12t-117 -39.5t-57.5 -54t-17.5 -62.5z" />
<glyph unicode="&#xe3;" horiz-adv-x="1101" d="M82 258q0 52 15 98t56 93t105.5 80.5t172 55t247.5 23.5v27q0 95 -19 137q-42 92 -180 92q-69 0 -131 -15t-100.5 -29.5t-50.5 -14.5q-40 0 -43 47l-7 53q-3 56 48 80q149 68 313 68q253 0 348 -148q33 -51 44 -118.5t11 -168.5v-337q0 -69 18.5 -99t69.5 -37 q33 -8 47 -22t13 -41l-2 -35q-3 -55 -56 -61t-86 -6q-157 0 -204 120q-131 -123 -316 -123q-138 0 -225.5 76.5t-87.5 204.5zM127 1298q24 67 54 111.5t63.5 66t62.5 29.5t64 8q50 0 141 -34l25 -9q54 -20 86 -20q12 0 20.5 2t23 8.5t30 24t30.5 45.5q16 24 32 32.5t40 2.5 l35 -13q55 -13 36 -69q-25 -67 -55.5 -111.5t-63.5 -66t-61.5 -29.5t-62.5 -8q-50 0 -144 35l-24 8q-54 20 -84 20q-17 0 -30 -3t-35 -22t-42 -55q-26 -45 -71 -34l-33 12q-58 13 -37 69zM301 283q0 -56 43 -92.5t123 -36.5q111 0 211 77v220q-108 2 -185 -12t-117 -39.5 t-57.5 -54t-17.5 -62.5z" />
<glyph unicode="&#xe4;" horiz-adv-x="1101" d="M82 258q0 52 15 98t56 93t105.5 80.5t172 55t247.5 23.5v27q0 95 -19 137q-42 92 -180 92q-69 0 -131 -15t-100.5 -29.5t-50.5 -14.5q-40 0 -43 47l-7 53q-3 56 48 80q149 68 313 68q253 0 348 -148q33 -51 44 -118.5t11 -168.5v-337q0 -69 18.5 -99t69.5 -37 q33 -8 47 -22t13 -41l-2 -35q-3 -55 -56 -61t-86 -6q-157 0 -204 120q-131 -123 -316 -123q-138 0 -225.5 76.5t-87.5 204.5zM164 1395q0 60 34.5 95.5t96.5 35.5q61 0 94 -36.5t33 -96.5q0 -65 -36.5 -101.5t-94.5 -36.5t-92.5 39.5t-34.5 100.5zM301 283q0 -56 43 -92.5 t123 -36.5q111 0 211 77v220q-108 2 -185 -12t-117 -39.5t-57.5 -54t-17.5 -62.5zM575 1395q0 59 36 95t98 36q61 0 93 -36t32 -97q0 -65 -36 -101.5t-96 -36.5q-58 0 -92.5 39.5t-34.5 100.5z" />
<glyph unicode="&#xe5;" horiz-adv-x="1101" d="M82 258q0 52 15 98t56 93t105.5 80.5t172 55t247.5 23.5v27q0 95 -19 137q-42 92 -180 92q-69 0 -131 -15t-100.5 -29.5t-50.5 -14.5q-40 0 -43 47l-7 53q-3 56 48 80q149 68 313 68q253 0 348 -148q33 -51 44 -118.5t11 -168.5v-337q0 -69 18.5 -99t69.5 -37 q33 -8 47 -22t13 -41l-2 -35q-3 -55 -56 -61t-86 -6q-157 0 -204 120q-131 -123 -316 -123q-138 0 -225.5 76.5t-87.5 204.5zM219 1403q0 117 81.5 191.5t205.5 74.5q125 0 199.5 -69.5t74.5 -184.5q0 -118 -81 -193t-205 -75q-125 0 -200 69.5t-75 186.5zM301 283 q0 -56 43 -92.5t123 -36.5q111 0 211 77v220q-108 2 -185 -12t-117 -39.5t-57.5 -54t-17.5 -62.5zM387 1413q0 -70 31 -107.5t84 -37.5q48 0 80 35t32 100q0 70 -31.5 107.5t-84.5 37.5q-47 0 -79 -34.5t-32 -100.5z" />
<glyph unicode="&#xe6;" horiz-adv-x="1703" d="M82 258q0 52 15 98t56 93t105.5 80.5t172 55t247.5 23.5v27q0 95 -19 137q-42 92 -180 92q-69 0 -130.5 -15t-100 -29.5t-51.5 -14.5q-40 0 -43 47l-7 53q-6 55 48 80q149 68 313 68q125 0 202.5 -33t120.5 -105q125 140 343 140q198 0 309.5 -134.5t93.5 -373.5 q-3 -55 -64 -55h-602q1 -155 95.5 -238.5t259.5 -83.5q71 0 129 11t93.5 22.5t51.5 11.5q43 0 43 -55l-4 -56q0 -50 -47 -67q-137 -57 -299 -57q-290 0 -430 163q-178 -166 -402 -166q-143 0 -231 76t-88 205zM301 283q0 -56 44 -92.5t126 -36.5q65 0 131 31t119 89 q-33 73 -43 177q-108 2 -185 -12t-117 -39.5t-57.5 -54t-17.5 -62.5zM913 645l435 2q4 111 -52.5 175.5t-154.5 64.5q-91 0 -156.5 -63t-71.5 -179z" />
<glyph unicode="&#xe7;" horiz-adv-x="1017" d="M100 508q0 139 41.5 246.5t113 171.5t162 96.5t195.5 32.5q113 0 211 -31q62 -17 56 -74l-9 -73q-3 -50 -49 -50q-1 0 -61 14.5t-125 14.5q-129 0 -209 -76t-80 -243q0 -93 24.5 -163t68 -111t96 -61t114.5 -20q65 0 134 18.5t77 18.5q41 0 41 -51l-2 -74 q-2 -29 -14.5 -45t-46.5 -29q-99 -40 -230 -40q-227 0 -367.5 140t-140.5 388zM393 -412q0 33 31 33q3 0 35.5 -6t64.5 -6q47 0 72 20.5t25 53.5q0 36 -33.5 64.5t-102.5 41.5q-41 9 -55 19t-10 30l8 37q5 19 18.5 26t47.5 7q66 0 133 -25.5t116.5 -79.5t49.5 -122 q0 -88 -66 -148.5t-178 -60.5q-66 0 -113 16q-43 11 -43 51v49z" />
<glyph unicode="&#xe8;" horiz-adv-x="1122" d="M94 526q0 237 136.5 383t361.5 146q199 0 310.5 -134.5t94.5 -373.5q-6 -55 -63 -55h-602q1 -155 95 -238.5t259 -83.5q68 0 128.5 11t97.5 22.5t49 11.5q43 0 43 -55l-5 -56q0 -50 -47 -67q-137 -57 -299 -57q-277 -1 -418 149t-141 397zM260 1487l25 82q15 60 71 28 l381 -241q42 -26 27 -74l-21 -55q-19 -54 -71 -29l-381 219q-44 20 -31 70zM334 645l434 2q3 111 -54 175.5t-153 64.5q-91 0 -156 -63t-71 -179z" />
<glyph unicode="&#xe9;" horiz-adv-x="1122" d="M94 526q0 237 136.5 383t361.5 146q199 0 310.5 -134.5t94.5 -373.5q-6 -55 -63 -55h-602q1 -155 95 -238.5t259 -83.5q68 0 128.5 11t97.5 22.5t49 11.5q43 0 43 -55l-5 -56q0 -50 -47 -67q-137 -57 -299 -57q-277 -1 -418 149t-141 397zM334 645l434 2q3 111 -54 175.5 t-153 64.5q-91 0 -156 -63t-71 -179zM377 1282q-20 50 26 74l381 241q53 29 72 -28l23 -82q16 -49 -31 -70l-381 -219q-53 -26 -72 29z" />
<glyph unicode="&#xea;" horiz-adv-x="1122" d="M94 526q0 237 136.5 383t361.5 146q199 0 310.5 -134.5t94.5 -373.5q-6 -55 -63 -55h-602q1 -155 95 -238.5t259 -83.5q68 0 128.5 11t97.5 22.5t49 11.5q43 0 43 -55l-5 -56q0 -50 -47 -67q-137 -57 -299 -57q-277 -1 -418 149t-141 397zM250 1253q-39 39 4 76l295 262 q39 36 78 0l276 -254q44 -38 2 -77l-57 -50q-38 -34 -78 0l-201 189l-202 -185q-39 -36 -78 3zM334 645l434 2q3 111 -54 175.5t-153 64.5q-91 0 -156 -63t-71 -179z" />
<glyph unicode="&#xeb;" horiz-adv-x="1122" d="M94 526q0 237 136.5 383t361.5 146q199 0 310.5 -134.5t94.5 -373.5q-6 -55 -63 -55h-602q1 -155 95 -238.5t259 -83.5q68 0 128.5 11t97.5 22.5t49 11.5q43 0 43 -55l-5 -56q0 -50 -47 -67q-137 -57 -299 -57q-277 -1 -418 149t-141 397zM238 1395q0 60 34.5 95.5 t96.5 35.5q61 0 94 -36.5t33 -96.5q0 -65 -36.5 -101.5t-94.5 -36.5t-92.5 39.5t-34.5 100.5zM334 645l434 2q3 111 -54 175.5t-153 64.5q-91 0 -156 -63t-71 -179zM649 1395q0 59 35.5 95t97.5 36q61 0 93 -36t32 -97q0 -65 -35.5 -101.5t-95.5 -36.5q-58 0 -92.5 39.5 t-34.5 100.5z" />
<glyph unicode="&#xec;" horiz-adv-x="528" d="M27 1542l34 66q31 57 84 14l316 -309q41 -36 10 -84l-25 -41q-31 -54 -81 -14l-322 286q-42 34 -16 82zM143 59v889q0 56 58 62l121 10q30 3 46.5 -12t16.5 -45v-904q0 -59 -59 -59h-123q-60 0 -60 59z" />
<glyph unicode="&#xed;" horiz-adv-x="528" d="M59 1229q-28 49 11 82l317 311q23 21 45 17t37 -31l35 -66q26 -48 -17 -82l-321 -286q-48 -38 -82 14zM143 59v889q0 56 58 62l121 10q30 3 46.5 -12t16.5 -45v-904q0 -59 -59 -59h-123q-60 0 -60 59z" />
<glyph unicode="&#xee;" horiz-adv-x="528" d="M-57 1253q-39 39 4 76l295 262q39 36 77 0l277 -254q44 -38 2 -77l-57 -50q-37 -34 -78 0l-201 189l-203 -185q-38 -36 -77 3zM145 59v889q0 56 56 62l121 10q63 6 63 -57v-904q0 -59 -59 -59h-121q-60 0 -60 59z" />
<glyph unicode="&#xef;" horiz-adv-x="528" d="M-70 1395q0 60 34.5 95.5t96.5 35.5q61 0 94 -36.5t33 -96.5q0 -65 -36.5 -101.5t-94.5 -36.5t-92.5 39.5t-34.5 100.5zM145 59v889q0 56 56 62l121 10q63 6 63 -57v-904q0 -59 -59 -59h-121q-60 0 -60 59zM342 1395q0 59 35.5 95t97.5 36q61 0 93 -36t32 -97 q0 -65 -35.5 -101.5t-95.5 -36.5q-58 0 -92.5 39.5t-34.5 100.5z" />
<glyph unicode="&#xf0;" horiz-adv-x="1210" d="M94 434q0 151 62 267t170 180q65 40 150 60t165 20q79 0 180 -23q-48 206 -170 319l-202 -137q-39 -27 -66 6l-41 50q-26 33 12 63l158 107q-105 59 -264 75q-62 6 -53 68l10 57q6 59 63 56q247 -12 432 -125l142 94q40 25 65 -6l41 -49q26 -32 -12 -62l-105 -72 q128 -117 199.5 -289.5t71.5 -385.5q0 -183 -41.5 -324.5t-116.5 -230t-176 -134t-223 -45.5q-207 0 -329 128t-122 333zM336 461q0 -148 69.5 -224.5t165.5 -76.5q49 0 96 19.5t78 56.5q105 121 105 426q0 71 -4 106q-97 27 -176 27q-134 0 -213 -62q-121 -91 -121 -272z " />
<glyph unicode="&#xf1;" horiz-adv-x="1189" d="M143 59v910q0 55 58 61l100 8q61 6 64 -49l2 -82q125 148 323 148q118 0 200.5 -53t121.5 -150q24 -55 30.5 -124t6.5 -175v-494q0 -59 -60 -59h-121q-59 0 -59 59v473q0 74 -6 130q-8 88 -54.5 138t-136.5 50q-124 0 -227 -100v-691q0 -59 -59 -59h-123q-60 0 -60 59z M223 1298q24 67 54 111.5t63.5 66t62.5 29.5t64 8q50 0 141 -34l25 -9q54 -20 86 -20q12 0 20.5 2t23 8.5t30 24t30.5 45.5q16 24 32 32.5t40 2.5l35 -13q26 -6 36 -24.5t1 -44.5q-25 -67 -55.5 -111.5t-63.5 -66t-62 -29.5t-63 -8q-49 0 -143 35l-25 8q-54 20 -84 20 q-17 0 -29.5 -3t-34.5 -22t-42 -55q-26 -45 -72 -34l-33 12q-58 13 -37 69z" />
<glyph unicode="&#xf2;" horiz-adv-x="1230" d="M100 516q0 129 41.5 233t114 170t168.5 101t207 35q223 0 361 -135t138 -379q0 -138 -42.5 -247t-116 -176.5t-166 -102.5t-197.5 -35q-97 0 -186.5 34t-162 98.5t-116 169t-43.5 234.5zM303 1487l25 82q15 60 71 28l381 -241q42 -26 27 -74l-21 -55q-19 -54 -71 -29 l-381 219q-44 20 -31 70zM344 530q0 -162 75.5 -261t192.5 -99h15q114 0 187 92t73 254q0 161 -74.5 255.5t-200.5 94.5q-116 0 -192 -83t-76 -253z" />
<glyph unicode="&#xf3;" horiz-adv-x="1230" d="M100 516q0 129 41.5 233t114 170t168.5 101t207 35q223 0 361 -135t138 -379q0 -138 -42.5 -247t-116 -176.5t-166 -102.5t-197.5 -35q-97 0 -186.5 34t-162 98.5t-116 169t-43.5 234.5zM344 530q0 -162 75.5 -261t192.5 -99h15q114 0 187 92t73 254q0 161 -74.5 255.5 t-200.5 94.5q-116 0 -192 -83t-76 -253zM420 1282q-20 50 26 74l381 241q53 29 72 -28l23 -82q16 -49 -31 -70l-381 -219q-53 -26 -72 29z" />
<glyph unicode="&#xf4;" horiz-adv-x="1230" d="M100 516q0 129 41.5 233t114 170t168.5 101t207 35q223 0 361 -135t138 -379q0 -138 -42.5 -247t-116 -176.5t-166 -102.5t-197.5 -35q-97 0 -186.5 34t-162 98.5t-116 169t-43.5 234.5zM293 1253q-39 39 4 76l295 262q39 36 78 0l276 -254q44 -38 2 -77l-57 -50 q-37 -34 -78 0l-201 189l-202 -185q-39 -36 -78 3zM344 530q0 -162 75.5 -261t192.5 -99h15q114 0 187 92t73 254q0 161 -74.5 255.5t-200.5 94.5q-116 0 -192 -83t-76 -253z" />
<glyph unicode="&#xf5;" horiz-adv-x="1230" d="M100 516q0 129 41.5 233t114 170t168.5 101t207 35q223 0 361 -135t138 -379q0 -138 -42.5 -247t-116 -176.5t-166 -102.5t-197.5 -35q-97 0 -186.5 34t-162 98.5t-116 169t-43.5 234.5zM242 1298q24 67 54 111.5t63 66t62 29.5t64 8q51 0 142 -34l24 -9q54 -20 86 -20 q61 0 105 80q16 24 31.5 32.5t39.5 2.5l35 -13q26 -6 36 -24.5t1 -44.5q-25 -67 -55.5 -111.5t-63.5 -66t-62 -29.5t-63 -8q-49 0 -143 35l-25 8q-54 20 -84 20q-17 0 -29.5 -3t-34.5 -22t-42 -55q-26 -45 -72 -34l-32 12q-58 13 -37 69zM344 530q0 -162 75.5 -261 t192.5 -99h15q114 0 187 92t73 254q0 161 -74.5 255.5t-200.5 94.5q-116 0 -192 -83t-76 -253z" />
<glyph unicode="&#xf6;" horiz-adv-x="1230" d="M100 516q0 129 41.5 233t114 170t168.5 101t207 35q223 0 361 -135t138 -379q0 -138 -42.5 -247t-116 -176.5t-166 -102.5t-197.5 -35q-97 0 -186.5 34t-162 98.5t-116 169t-43.5 234.5zM281 1395q0 60 34.5 95.5t96.5 35.5q61 0 94 -36.5t33 -96.5q0 -65 -36.5 -101.5 t-94.5 -36.5t-92.5 39.5t-34.5 100.5zM344 530q0 -162 75.5 -261t192.5 -99h15q114 0 187 92t73 254q0 161 -74.5 255.5t-200.5 94.5q-116 0 -192 -83t-76 -253zM692 1395q0 59 35.5 95t97.5 36q61 0 93 -36t32 -97q0 -65 -35.5 -101.5t-95.5 -36.5q-58 0 -92.5 39.5 t-34.5 100.5z" />
<glyph unicode="&#xf7;" horiz-adv-x="1163" d="M82 575v68q0 55 55 55h869q53 0 53 -55v-68q0 -55 -53 -55h-869q-55 0 -55 55zM459 223q0 50 34 84.5t87 34.5q50 0 82 -36.5t32 -88.5q0 -50 -34 -83.5t-87 -33.5q-52 0 -83 35t-31 88zM459 995q0 50 34 84.5t87 34.5q50 0 82 -36.5t32 -88.5q0 -50 -34 -83.5t-87 -33.5 q-52 0 -83 35t-31 88z" />
<glyph unicode="&#xf8;" horiz-adv-x="1230" d="M100 516q0 129 41.5 233t114 170t168.5 101t207 35q124 0 225 -43l113 168q35 52 80 22l32 -22q40 -27 9 -78l-113 -168q153 -140 153 -393q0 -138 -42.5 -247t-116 -176.5t-166 -102.5t-197.5 -35q-122 0 -237 53l-97 -146q-34 -50 -79 -20l-33 20q-45 28 -8 78l98 150 q-152 146 -152 401zM342 530q0 -128 55 -213l338 523q-54 28 -123 28q-116 0 -193 -84t-77 -254zM487 203q56 -35 125 -35h15q114 0 188 93t74 255q0 131 -60 213z" />
<glyph unicode="&#xf9;" horiz-adv-x="1189" d="M139 483v484q0 55 58 61l120 10q30 3 47 -12t17 -45v-479q0 -74 6 -129q6 -88 53.5 -138.5t137.5 -50.5q120 0 227 101v682q0 55 55 61l123 10q61 6 61 -57v-913q0 -56 -55 -62l-100 -8q-29 -4 -45.5 8.5t-18.5 38.5l-4 82q-122 -145 -323 -145q-117 0 -199.5 51.5 t-122.5 148.5q-37 92 -37 301zM260 1487l25 82q15 60 71 28l381 -241q42 -26 27 -74l-21 -55q-19 -54 -71 -29l-381 219q-44 20 -31 70z" />
<glyph unicode="&#xfa;" horiz-adv-x="1189" d="M139 483v484q0 55 58 61l120 10q30 3 47 -12t17 -45v-479q0 -74 6 -129q6 -88 53.5 -138.5t137.5 -50.5q120 0 227 101v682q0 55 55 61l123 10q61 6 61 -57v-913q0 -56 -55 -62l-100 -8q-29 -4 -45.5 8.5t-18.5 38.5l-4 82q-122 -145 -323 -145q-117 0 -199.5 51.5 t-122.5 148.5q-37 92 -37 301zM420 1282q-20 50 26 74l381 241q53 29 72 -28l23 -82q16 -49 -31 -70l-381 -219q-53 -26 -72 29z" />
<glyph unicode="&#xfb;" horiz-adv-x="1189" d="M139 483v484q0 55 58 61l120 10q30 3 47 -12t17 -45v-479q0 -74 6 -129q6 -88 53.5 -138.5t137.5 -50.5q120 0 227 101v682q0 55 55 61l123 10q61 6 61 -57v-913q0 -56 -55 -62l-100 -8q-29 -4 -45.5 8.5t-18.5 38.5l-4 82q-122 -145 -323 -145q-117 0 -199.5 51.5 t-122.5 148.5q-37 92 -37 301zM270 1253q-39 39 4 76l295 262q39 36 78 0l277 -254q44 -38 2 -77l-58 -50q-37 -34 -77 0l-201 189l-203 -185q-39 -36 -78 3z" />
<glyph unicode="&#xfc;" horiz-adv-x="1189" d="M139 483v484q0 55 58 61l120 10q30 3 47 -12t17 -45v-479q0 -74 6 -129q6 -88 53.5 -138.5t137.5 -50.5q120 0 227 101v682q0 55 55 61l123 10q61 6 61 -57v-913q0 -56 -55 -62l-100 -8q-29 -4 -45.5 8.5t-18.5 38.5l-4 82q-122 -145 -323 -145q-117 0 -199.5 51.5 t-122.5 148.5q-37 92 -37 301zM260 1395q0 60 34.5 95.5t96.5 35.5q61 0 94 -36.5t33 -96.5q0 -65 -36.5 -101.5t-94.5 -36.5t-92.5 39.5t-34.5 100.5zM672 1395q0 59 35.5 95t97.5 36q61 0 93 -36t32 -97q0 -65 -35.5 -101.5t-95.5 -36.5q-58 0 -92.5 39.5t-34.5 100.5z " />
<glyph unicode="&#xfd;" horiz-adv-x="1146" d="M41 967q-10 31 3.5 49t45.5 18h148q50 0 65 -49q149 -492 293 -860q71 135 137 358q62 218 96 496q6 55 64 55h119q61 0 55 -61q-41 -289 -129 -574q-130 -405 -328 -622q-170 -188 -434 -293q-54 -20 -78 33l-39 88q-24 56 35 78q235 99 344 235q-114 265 -224.5 564 t-172.5 485zM369 1282q-20 50 26 74l381 241q53 29 72 -28l22 -82q16 -49 -30 -70l-381 -219q-53 -26 -72 29z" />
<glyph unicode="&#xfe;" horiz-adv-x="1214" d="M143 -453v1966q0 26 15 42.5t43 19.5l121 10q63 3 63 -57v-436q0 -48 -4 -95.5t-8 -70.5l-4 -23q119 152 317 152q186 0 308 -135t122 -375q0 -261 -152 -414.5t-432 -153.5q-79 0 -147 15v-445q0 -59 -59 -59h-123q-60 0 -60 59zM385 195q86 -29 180 -29q141 0 223 90.5 t82 255.5q0 167 -73.5 255.5t-178.5 88.5q-132 0 -233 -104v-557z" />
<glyph unicode="&#xff;" horiz-adv-x="1146" d="M41 967q-10 31 3.5 49t45.5 18h148q50 0 65 -49q149 -492 293 -860q71 135 137 358q62 218 96 496q6 55 64 55h119q61 0 55 -61q-41 -289 -129 -574q-130 -405 -328 -622q-170 -188 -434 -293q-54 -20 -78 33l-39 88q-24 56 35 78q235 99 344 235q-114 265 -224.5 564 t-172.5 485zM217 1395q0 60 34.5 95.5t96.5 35.5q61 0 94 -36.5t33 -96.5q0 -65 -36.5 -101.5t-94.5 -36.5t-92.5 39.5t-34.5 100.5zM629 1395q0 59 35.5 95t97.5 36q61 0 93 -36t32 -97q0 -65 -35.5 -101.5t-95.5 -36.5q-58 0 -92.5 39.5t-34.5 100.5z" />
<glyph unicode="&#x152;" horiz-adv-x="2154" d="M117 743q0 204 78.5 359t220.5 246q186 127 450 127q145 0 264 -21h738q65 0 65 -65v-82q0 -66 -65 -66h-484v-401h447q65 0 65 -66v-76q0 -65 -65 -65h-447v-420h533q68 0 65 -68l-8 -82q-3 -63 -67 -63h-777q-153 -20 -262 -20q-296 0 -489 153q-129 101 -195.5 259 t-66.5 351zM381 762q0 -298 164 -449q128 -118 329 -118h11q127 0 245 30v1006q-123 29 -262 29q-187 0 -311 -89q-86 -60 -131 -168t-45 -241z" />
<glyph unicode="&#x153;" horiz-adv-x="1906" d="M90 516q0 129 42 233t115 170t169 101t207 35q250 0 383 -172q130 172 370 172q199 0 311 -134.5t95 -373.5q-6 -55 -64 -55h-602q1 -155 95 -238.5t259 -83.5q67 0 128 11t99 22.5t48 11.5q43 0 43 -55l-4 -56q0 -50 -47 -67q-137 -57 -299 -57q-304 0 -441 188 q-69 -92 -172.5 -140t-224.5 -48q-77 0 -150.5 21t-139 64.5t-114.5 106t-77.5 151t-28.5 193.5zM336 530q0 -162 75.5 -261t192.5 -99h14q114 0 187.5 92t73.5 254q0 161 -74.5 255.5t-200.5 94.5q-116 0 -192 -83t-76 -253zM1118 645l434 2q3 111 -53.5 175.5t-152.5 64.5 q-91 0 -156.5 -63t-71.5 -179z" />
<glyph unicode="&#x178;" horiz-adv-x="1417" d="M71.5 1431q13.5 23 53.5 23h154q53 0 79 -45l367 -571l362 573q27 43 80 43h123q41 0 54 -23t-9 -57l-501 -764v-544q0 -66 -66 -66h-123q-65 0 -65 66v542l-500 766q-22 34 -8.5 57zM358 1763q0 58 34.5 94.5t96.5 36.5q61 0 94 -36.5t33 -94.5q0 -65 -36 -101t-95 -36 q-57 0 -92 39.5t-35 97.5zM780 1763q0 58 34.5 94.5t96.5 36.5q61 0 94 -36.5t33 -94.5q0 -65 -36.5 -101t-96.5 -36q-57 0 -91 39t-34 98z" />
<glyph unicode="&#x2c6;" horiz-adv-x="940" d="M141 1253q-39 39 4 76l295 262q39 36 78 0l277 -254q44 -38 2 -77l-58 -50q-37 -34 -77 0l-201 189l-203 -185q-39 -36 -78 3z" />
<glyph unicode="&#x2dc;" horiz-adv-x="983" d="M121 1298q24 67 54 111.5t63.5 66t62.5 29.5t64 8q50 0 141 -34l24 -9q54 -20 86 -20q61 0 105 80q16 24 32 32.5t40 2.5l34 -13q26 -6 36 -24.5t1 -44.5q-25 -67 -55.5 -111.5t-63.5 -66t-61.5 -29.5t-62.5 -8q-50 0 -144 35l-24 8q-54 20 -84 20q-17 0 -30 -3t-35 -22 t-42 -55q-26 -45 -72 -34l-32 12q-58 13 -37 69z" />
<glyph unicode="&#x2000;" horiz-adv-x="1002" />
<glyph unicode="&#x2001;" horiz-adv-x="2005" />
<glyph unicode="&#x2002;" horiz-adv-x="1002" />
<glyph unicode="&#x2003;" horiz-adv-x="2005" />
<glyph unicode="&#x2004;" horiz-adv-x="668" />
<glyph unicode="&#x2005;" horiz-adv-x="501" />
<glyph unicode="&#x2006;" horiz-adv-x="334" />
<glyph unicode="&#x2007;" horiz-adv-x="334" />
<glyph unicode="&#x2008;" horiz-adv-x="250" />
<glyph unicode="&#x2009;" horiz-adv-x="401" />
<glyph unicode="&#x200a;" horiz-adv-x="111" />
<glyph unicode="&#x2010;" horiz-adv-x="665" d="M51 522v82q0 55 55 55h453q55 0 55 -55v-82q0 -55 -55 -55h-453q-55 0 -55 55z" />
<glyph unicode="&#x2011;" horiz-adv-x="665" d="M51 522v82q0 55 55 55h453q55 0 55 -55v-82q0 -55 -55 -55h-453q-55 0 -55 55z" />
<glyph unicode="&#x2012;" horiz-adv-x="665" d="M51 522v82q0 55 55 55h453q55 0 55 -55v-82q0 -55 -55 -55h-453q-55 0 -55 55z" />
<glyph unicode="&#x2013;" horiz-adv-x="1024" d="M41 510v94q0 55 55 55h832q55 0 55 -55v-94q0 -55 -55 -55h-832q-55 0 -55 55z" />
<glyph unicode="&#x2014;" horiz-adv-x="2048" d="M41 510v94q0 55 55 55h1856q55 0 55 -55v-94q0 -55 -55 -55h-1856q-55 0 -55 55z" />
<glyph unicode="&#x2018;" horiz-adv-x="520" d="M86 1204q0 141 125 297q52 63 84 91t53 28q19 0 58 -27q27 -19 35 -28t8 -23q0 -11 -21 -39t-46 -59.5t-45.5 -80t-19.5 -95.5q1 -33 13 -60.5t26.5 -43t26.5 -33t12 -31.5q0 -32 -42.5 -64t-94.5 -32q-81 0 -126.5 58t-45.5 142z" />
<glyph unicode="&#x2019;" horiz-adv-x="520" d="M72 1016q0 11 20.5 39t45.5 59.5t45.5 80t19.5 95.5q-1 33 -13 60.5t-26.5 43t-26.5 33t-12 31.5q0 32 42.5 64t94.5 32q81 0 126.5 -58t45.5 -142q0 -141 -125 -297q-52 -63 -84 -91t-53 -28q-18 0 -57 27q-27 19 -35 28t-8 23z" />
<glyph unicode="&#x201a;" horiz-adv-x="520" d="M72 -225q0 11 20.5 39t45.5 59.5t45.5 80t19.5 95.5q-1 33 -13 60.5t-26.5 43t-26.5 33t-12 31.5q0 32 42.5 64t94.5 32q81 0 126.5 -58t45.5 -142q0 -141 -125 -297q-52 -63 -84 -91t-53 -28q-18 0 -57 27q-27 19 -35 28t-8 23z" />
<glyph unicode="&#x201c;" horiz-adv-x="935" d="M86 1221q0 160 180 358q51 59 78 59q20 0 55 -24q43 -28 43 -49q0 -16 -32 -57.5t-64.5 -104t-32.5 -129.5q0 -55 31 -98q5 -7 15.5 -21t14 -20t7.5 -15.5t4 -19.5q0 -29 -38.5 -56.5t-90.5 -27.5q-79 0 -124.5 58t-45.5 147zM539 1219q0 73 34.5 155.5t137.5 192.5 q28 31 43 42t30 11q13 0 52 -27q45 -28 45 -49q0 -12 -19 -38.5t-42.5 -55.5t-42.5 -76t-19 -94q0 -52 33 -102q4 -5 13.5 -19t13.5 -20.5t8.5 -17t4.5 -19.5q0 -30 -39 -58t-90 -28q-76 0 -119.5 57.5t-43.5 145.5z" />
<glyph unicode="&#x201d;" horiz-adv-x="935" d="M55 1028q0 12 19 38.5t42.5 55.5t42.5 76t19 94q0 54 -33 103q-4 7 -13.5 19.5t-14 19.5t-9 17t-4.5 19q0 30 39 58t90 28q76 0 120 -57t44 -145q0 -73 -34.5 -155.5t-137.5 -192.5q-28 -31 -43 -42.5t-30 -11.5q-13 0 -52 27q-45 28 -45 49zM494 1008q0 14 20 43 t44.5 60.5t44.5 83t20 103.5q0 56 -31 99q-5 7 -15.5 21t-14 20t-7.5 15.5t-4 19.5q0 29 38.5 56t90.5 27q79 0 124.5 -57.5t45.5 -146.5q0 -161 -180 -359q-51 -59 -78 -59q-20 0 -55 24q-43 28 -43 50z" />
<glyph unicode="&#x201e;" horiz-adv-x="935" d="M55 -215q0 12 19 38.5t42.5 55.5t42.5 76t19 94q0 53 -33 103q-4 7 -13.5 19.5t-14 19.5t-9 17t-4.5 19q0 30 39 58t90 28q76 0 120 -57t44 -145q0 -73 -34.5 -156t-137.5 -193q-28 -31 -43 -42t-30 -11q-13 0 -52 27q-45 28 -45 49zM494 -236q0 16 32 57.5t64.5 104 t32.5 129.5q0 56 -31 99q-6 8 -16 21t-14 19t-7.5 15.5t-3.5 19.5q0 29 38.5 56.5t90.5 27.5q79 0 124.5 -57.5t45.5 -146.5q0 -161 -180 -359q-51 -59 -78 -59q-20 0 -55 24q-43 28 -43 49z" />
<glyph unicode="&#x2022;" horiz-adv-x="540" d="M72 750q0 84 56 141t144 57t142.5 -59.5t54.5 -147.5q0 -83 -59.5 -139.5t-145.5 -56.5q-84 0 -138 60t-54 145z" />
<glyph unicode="&#x2026;" horiz-adv-x="1339" d="M106 135q0 65 40.5 106.5t109.5 41.5q65 0 104 -43t39 -113q0 -64 -40.5 -105.5t-108.5 -41.5q-64 0 -104 43.5t-40 111.5zM522 135q0 65 40.5 106.5t109.5 41.5q66 0 105.5 -43.5t39.5 -112.5q0 -64 -41 -105.5t-108 -41.5q-65 0 -105.5 43.5t-40.5 111.5zM938 135 q0 64 40.5 106t108.5 42q66 0 106 -43.5t40 -112.5q0 -64 -41.5 -105.5t-108.5 -41.5q-65 0 -105 43.5t-40 111.5z" />
<glyph unicode="&#x202f;" horiz-adv-x="401" />
<glyph unicode="&#x2039;" horiz-adv-x="692" d="M76 494q-26 39 2 77l348 412q33 42 76 8l69 -57q45 -35 7 -76l-269 -315l283 -344q17 -20 14.5 -40.5t-24.5 -35.5l-80 -64q-42 -31 -76 11z" />
<glyph unicode="&#x203a;" horiz-adv-x="692" d="M86 896.5q3 20.5 25 35.5l79 63q43 32 76 -10l350 -424q26 -40 -2 -78l-348 -411q-34 -43 -76 -9l-69 58q-44 35 -6 76l268 315l-283 344q-17 20 -14 40.5z" />
<glyph unicode="&#x205f;" horiz-adv-x="501" />
<glyph unicode="&#x20ac;" d="M45 553v45q1 19 10 26t27 7h102q-4 39 -4 100l6 100h-104q-37 0 -37 35v45q1 21 10 28t27 7h115q19 136 75 239.5t138.5 165.5t181 93t209.5 31q137 0 237 -33q58 -12 52 -72l-9 -76q-6 -53 -51 -53q-1 0 -71.5 16.5t-151.5 16.5q-142 0 -239.5 -82t-116.5 -246h454 q18 0 27 -7t10 -28v-45q0 -35 -37 -35h-469q-2 -41 -2 -98l4 -102h467q18 0 27 -7t10 -26v-45q0 -37 -37 -37h-452q15 -112 68 -188.5t127 -111t165 -34.5q66 0 122 13t90.5 25.5t47.5 12.5q44 0 41 -57l-6 -72q0 -51 -49 -69q-130 -55 -283 -55q-241 0 -397.5 139 t-185.5 397h-111q-37 0 -37 37z" />
<glyph unicode="&#x2122;" horiz-adv-x="2134" d="M72 1333v76q0 45 45 45h624q48 0 45 -47l-4 -74q-3 -45 -47 -45h-215v-680q0 -45 -45 -45h-96q-45 0 -45 45v680h-217q-45 0 -45 45zM930 610l31 799q3 45 47 45h153q38 0 53 -37l259 -622l274 624q14 35 53 35h144q45 0 45 -45l30 -799q3 -47 -45 -47h-86q-44 0 -47 45 l-22 574l-258 -584q-14 -35 -54 -35h-90q-39 0 -51 37l-246 580l-20 -572q0 -45 -45 -45h-78q-47 0 -47 47z" />
<glyph unicode="&#xe000;" horiz-adv-x="1034" d="M0 0v1034h1034v-1034h-1034z" />
<glyph unicode="&#xfb01;" horiz-adv-x="1263" d="M31 885v51q0 55 55 61l107 13v39q0 129 20 224t78 165q64 81 165.5 121t254.5 40q123 0 227 -24q55 -12 49 -70l-8 -67q-6 -52 -53 -52q-1 0 -72 10.5t-141 10.5q-156 0 -224 -80q-36 -42 -46.5 -103t-10.5 -163v-51h205q60 0 57 -62l-4 -65q-3 -58 -59 -58h-199v-766 q0 -59 -59 -59h-121q-59 0 -59 59v766h-103q-59 0 -59 60zM879 59v889q0 56 57 62l121 10q61 6 61 -57v-904q0 -59 -59 -59h-121q-59 0 -59 59z" />
<glyph unicode="&#xfb02;" horiz-adv-x="1263" d="M31 885v51q0 55 55 61l107 13v39q0 129 20 224t78 165q64 81 165.5 121t254.5 40q120 0 227 -24l119 10q61 6 61 -57v-1469q0 -59 -59 -59h-121q-59 0 -59 59v1332q-72 16 -166 16q-156 0 -224 -80q-36 -42 -46.5 -103t-10.5 -163v-51h205q60 0 57 -62l-4 -65 q-3 -58 -59 -58h-199v-766q0 -59 -59 -59h-121q-59 0 -59 59v766h-103q-59 0 -59 60z" />
</font>
</defs>
</svg>
